<svg width="15" height="17" viewBox="0 0 15 17" fill="none" xmlns="http://www.w3.org/2000/svg">
<path d="M6.9478 12.2638H5.2806H5.271H5.2678H5.2614C3.6326 12.2638 2.3078 10.939 2.3078 9.3102C2.3078 7.6814 3.6326 6.3566 5.2614 6.3566C5.7062 6.3566 6.0678 5.995 6.0678 5.5502C6.0678 5.1054 5.7062 4.7438 5.2614 4.7438C2.743 4.7406 0.695 6.7886 0.695 9.307C0.695 11.8254 2.743 13.8734 5.2614 13.8734H5.271H5.2742H5.2806H6.9478C7.3926 13.8734 7.7542 13.5118 7.7542 13.067C7.7542 12.6254 7.3926 12.2638 6.9478 12.2638Z" fill="url(#paint0_linear_224_2680)"/>
<path d="M9.76063 4.203C8.79743 4.203 8.01343 3.419 8.01343 2.4558C8.01343 1.4926 8.79743 0.711802 9.76063 0.711802C10.7238 0.711802 11.5078 1.4958 11.5078 2.459C11.5078 3.4222 10.7238 4.203 9.76063 4.203ZM9.76063 1.5182C9.24223 1.5182 8.81983 1.9406 8.81983 2.459C8.81983 2.9774 9.24223 3.3998 9.76063 3.3998C10.279 3.3998 10.7014 2.9774 10.7014 2.459C10.7014 1.9406 10.279 1.5182 9.76063 1.5182Z" fill="#FF8B00"/>
<path d="M9.76061 4.7406C7.44381 4.7406 5.73181 6.3598 5.73181 9.307V15.9054C5.73181 16.3502 6.09341 16.7118 6.53821 16.7118C6.98301 16.7118 7.34461 16.3502 7.34461 15.9054V13.8734H9.83741C9.86301 13.8734 9.88541 13.8702 9.91101 13.867L9.93021 13.8638C12.3942 13.7806 14.3302 11.7774 14.3302 9.307C14.327 6.7886 12.279 4.7406 9.76061 4.7406ZM7.34461 9.307C7.34461 7.4318 8.51901 6.3534 9.76381 6.3534C11.3926 6.3534 12.7174 7.6782 12.7174 9.307C12.7174 10.9358 11.3926 12.2606 9.76381 12.2606H7.34461V9.307V9.307Z" fill="url(#paint1_linear_224_2680)"/>
<defs>
<linearGradient id="paint0_linear_224_2680" x1="4.47182" y1="14.0945" x2="3.66421" y2="4.86337" gradientUnits="userSpaceOnUse">
<stop offset="0.000783944" stop-color="#00AA5B"/>
<stop offset="0.1614" stop-color="#00B451"/>
<stop offset="0.9996" stop-color="#93D500"/>
</linearGradient>
<linearGradient id="paint1_linear_224_2680" x1="13.0363" y1="6.12772" x2="4.32834" y2="14.8357" gradientUnits="userSpaceOnUse">
<stop offset="0.000408522" stop-color="#00B451"/>
<stop offset="0.4047" stop-color="#21BB3F"/>
<stop offset="1" stop-color="#93D500"/>
</linearGradient>
</defs>
</svg>
