<svg width="14" height="14" viewBox="0 0 14 14" fill="none" xmlns="http://www.w3.org/2000/svg">
<path fill-rule="evenodd" clip-rule="evenodd" d="M0.888916 7.00003C0.888916 3.61114 3.61114 0.888916 7.00003 0.888916C10.3889 0.888916 13.1111 3.61114 13.1111 7.00003C13.1111 10.3889 10.3889 13.1111 7.00003 13.1111C3.61114 13.1111 0.888916 10.3889 0.888916 7.00003ZM2.00003 7.00003C2.00003 9.77781 4.22225 12 7.00003 12C9.77781 12 12 9.77781 12 7.00003C12 4.22225 9.77781 2.00003 7.00003 2.00003C4.22225 2.00003 2.00003 4.22225 2.00003 7.00003ZM7.55558 7.00003V9.22225C7.55558 9.55558 7.33336 9.7778 7.00003 9.7778C6.66669 9.7778 6.44447 9.55558 6.44447 9.22225V7.00003C6.44447 6.66669 6.66669 6.44447 7.00003 6.44447C7.33336 6.44447 7.55558 6.66669 7.55558 7.00003ZM7.00002 5.33336C7.31298 5.33336 7.56668 5.07965 7.56668 4.76669C7.56668 4.45373 7.31298 4.20003 7.00002 4.20003C6.68706 4.20003 6.43335 4.45373 6.43335 4.76669C6.43335 5.07965 6.68706 5.33336 7.00002 5.33336Z" fill="#2196F3"/>
</svg>
