<svg width="24" height="24" viewBox="0 0 24 24" fill="none" xmlns="http://www.w3.org/2000/svg">
<path fill-rule="evenodd" clip-rule="evenodd" d="M4 13.9482C4 13.4707 4.38707 13.0836 4.86455 13.0836H18.6974C19.0471 13.0836 19.3623 13.2943 19.4961 13.6174C19.63 13.9404 19.556 14.3123 19.3087 14.5595L14.1214 19.7469C13.7838 20.0845 13.2364 20.0845 12.8988 19.7469C12.5611 19.4092 12.5611 18.8618 12.8988 18.5242L16.6102 14.8128H4.86455C4.38707 14.8128 4 14.4257 4 13.9482Z" fill="#3D3D3D"/>
<path fill-rule="evenodd" clip-rule="evenodd" d="M19.562 11.052C19.562 11.5295 19.1749 11.9165 18.6974 11.9165L4.86458 11.9165C4.5149 11.9165 4.19965 11.7059 4.06584 11.3828C3.93202 11.0598 4.00599 10.6879 4.25325 10.4406L9.44057 5.25333C9.7782 4.9157 10.3256 4.9157 10.6632 5.25333C11.0009 5.59096 11.0009 6.13836 10.6632 6.47599L6.95179 10.1874L18.6974 10.1874C19.1749 10.1874 19.562 10.5745 19.562 11.052Z" fill="#3D3D3D"/>
</svg>
