<svg width="50" height="50" viewBox="0 0 50 50" fill="none" xmlns="http://www.w3.org/2000/svg">
<g clip-path="url(#clip0_222_1283)">
<path d="M12.5 24.1666V30.8333C12.5 32.2166 13.6166 33.3333 15 33.3333C16.3833 33.3333 17.5 32.2166 17.5 30.8333V24.1666C17.5 22.7833 16.3833 21.6666 15 21.6666C13.6166 21.6666 12.5 22.7833 12.5 24.1666ZM22.5 24.1666V30.8333C22.5 32.2166 23.6166 33.3333 25 33.3333C26.3833 33.3333 27.5 32.2166 27.5 30.8333V24.1666C27.5 22.7833 26.3833 21.6666 25 21.6666C23.6166 21.6666 22.5 22.7833 22.5 24.1666ZM11.6666 41.6666H38.3333C39.7166 41.6666 40.8333 40.5499 40.8333 39.1666C40.8333 37.7833 39.7166 36.6666 38.3333 36.6666H11.6666C10.2833 36.6666 9.16663 37.7833 9.16663 39.1666C9.16663 40.5499 10.2833 41.6666 11.6666 41.6666ZM32.5 24.1666V30.8333C32.5 32.2166 33.6166 33.3333 35 33.3333C36.3833 33.3333 37.5 32.2166 37.5 30.8333V24.1666C37.5 22.7833 36.3833 21.6666 35 21.6666C33.6166 21.6666 32.5 22.7833 32.5 24.1666ZM23.45 7.48326L10.2833 14.4166C9.59996 14.7666 9.16663 15.4833 9.16663 16.2499C9.16663 17.3999 10.1 18.3333 11.25 18.3333H38.7666C39.9 18.3333 40.8333 17.3999 40.8333 16.2499C40.8333 15.4833 40.4 14.7666 39.7166 14.4166L26.55 7.48326C25.5833 6.9666 24.4166 6.9666 23.45 7.48326V7.48326Z" fill="#00B451"/>
</g>
<defs>
<clipPath id="clip0_222_1283">
<rect x="5" y="5" width="40" height="40" rx="5" fill="white"/>
</clipPath>
</defs>
</svg>
