<svg width="30" height="30" viewBox="0 0 30 30" fill="none" xmlns="http://www.w3.org/2000/svg">
<rect x="0.5" y="0.5" width="29" height="29" rx="4.5" fill="white" stroke="#00B451"/>
<g clip-path="url(#clip0_222_1395)">
<path d="M7.5 14.4999V18.4999C7.5 19.3299 8.17 19.9999 9 19.9999C9.83 19.9999 10.5 19.3299 10.5 18.4999V14.4999C10.5 13.6699 9.83 12.9999 9 12.9999C8.17 12.9999 7.5 13.6699 7.5 14.4999ZM13.5 14.4999V18.4999C13.5 19.3299 14.17 19.9999 15 19.9999C15.83 19.9999 16.5 19.3299 16.5 18.4999V14.4999C16.5 13.6699 15.83 12.9999 15 12.9999C14.17 12.9999 13.5 13.6699 13.5 14.4999ZM7 24.9999H23C23.83 24.9999 24.5 24.3299 24.5 23.4999C24.5 22.6699 23.83 21.9999 23 21.9999H7C6.17 21.9999 5.5 22.6699 5.5 23.4999C5.5 24.3299 6.17 24.9999 7 24.9999ZM19.5 14.4999V18.4999C19.5 19.3299 20.17 19.9999 21 19.9999C21.83 19.9999 22.5 19.3299 22.5 18.4999V14.4999C22.5 13.6699 21.83 12.9999 21 12.9999C20.17 12.9999 19.5 13.6699 19.5 14.4999ZM14.07 4.48995L6.17 8.64995C5.76 8.85995 5.5 9.28995 5.5 9.74995C5.5 10.4399 6.06 10.9999 6.75 10.9999H23.26C23.94 10.9999 24.5 10.4399 24.5 9.74995C24.5 9.28995 24.24 8.85995 23.83 8.64995L15.93 4.48995C15.35 4.17995 14.65 4.17995 14.07 4.48995V4.48995Z" fill="#00B451"/>
</g>
<defs>
<clipPath id="clip0_222_1395">
<rect x="3" y="3" width="24" height="24" rx="5" fill="white"/>
</clipPath>
</defs>
</svg>
