<svg width="24" height="24" viewBox="0 0 24 24" fill="none" xmlns="http://www.w3.org/2000/svg">
<path fill-rule="evenodd" clip-rule="evenodd" d="M2 12C2 6.45455 6.45455 2 12 2C17.5455 2 22 6.45455 22 12C22 17.5455 17.5455 22 12 22C6.45455 22 2 17.5455 2 12ZM3.81821 11.9999C3.81821 16.5454 7.45457 20.1817 12 20.1817C16.5455 20.1817 20.1818 16.5454 20.1818 11.9999C20.1818 7.45444 16.5455 3.81808 12 3.81808C7.45457 3.81808 3.81821 7.45444 3.81821 11.9999Z" fill="#00B451"/>
<path d="M14.3501 10.35H13.9215V9.49283C13.9215 8.30998 12.9615 7.34998 11.7787 7.34998C10.5958 7.34998 9.63581 8.30998 9.63581 9.49283V10.35H9.20724C8.73581 10.35 8.3501 10.7357 8.3501 11.2071V15.4928C8.3501 15.9643 8.73581 16.35 9.20724 16.35H14.3501C14.8215 16.35 15.2072 15.9643 15.2072 15.4928V11.2071C15.2072 10.7357 14.8215 10.35 14.3501 10.35ZM10.4501 9.49283C10.4501 8.75998 11.0458 8.16426 11.7787 8.16426C12.5115 8.16426 13.1072 8.75998 13.1072 9.49283V10.35H10.4501V9.49283ZM14.3501 15.4928H9.20724V11.2071H14.3501V15.4928Z" fill="#00B451"/>
<path fill-rule="evenodd" clip-rule="evenodd" d="M14.2714 10H14.35C15.0147 10 15.5571 10.5424 15.5571 11.2071V15.4929C15.5571 16.1576 15.0147 16.7 14.35 16.7H9.20714C8.54241 16.7 8 16.1576 8 15.4929V11.2071C8 10.5424 8.54241 10 9.20714 10H9.28571V9.49286C9.28571 8.1167 10.4024 7 11.7786 7C13.1547 7 14.2714 8.1167 14.2714 9.49286V10ZM11.7786 8.51429C11.239 8.51429 10.8 8.9533 10.8 9.49286V10H12.7571V9.49286C12.7571 8.9533 12.3181 8.51429 11.7786 8.51429ZM9.55714 15.1429V11.5571H14V15.1429H9.55714ZM14.3501 10.35C14.8215 10.35 15.2072 10.7357 15.2072 11.2071V15.4928C15.2072 15.9643 14.8215 16.35 14.3501 16.35H9.20724C8.73581 16.35 8.3501 15.9643 8.3501 15.4928V11.2071C8.3501 10.7357 8.73581 10.35 9.20724 10.35H9.63581V9.49283C9.63581 8.30998 10.5958 7.34998 11.7787 7.34998C12.9615 7.34998 13.9215 8.30998 13.9215 9.49283V10.35H14.3501ZM11.7787 8.16426C11.0458 8.16426 10.4501 8.75998 10.4501 9.49283V10.35H13.1072V9.49283C13.1072 8.75998 12.5115 8.16426 11.7787 8.16426ZM14.3501 15.4928V11.2071H9.20724V15.4928H14.3501Z" fill="#00B451"/>
</svg>
