<svg width="19" height="20" viewBox="0 0 19 20" fill="none" xmlns="http://www.w3.org/2000/svg">
<path fill-rule="evenodd" clip-rule="evenodd" d="M8.72763 14.4545C8.63672 14.4545 8.54581 14.3636 8.4549 14.2727L4.81854 10.6364C4.4549 10.2727 4.4549 9.72727 4.81854 9.36364C5.18217 9 5.72763 9 6.09126 9.36364L8.18217 11.4545V0.909091C8.18217 0.363636 8.54581 0 9.09126 0C9.63672 0 10.0004 0.363636 10.0004 0.909091V11.4545L12.0913 9.36364C12.4549 9 13.0004 9 13.364 9.36364C13.7276 9.72727 13.7276 10.2727 13.364 10.6364L9.72763 14.2727C9.68217 14.3182 9.63672 14.3409 9.59126 14.3636C9.54581 14.3864 9.50035 14.4091 9.4549 14.4545C9.36399 14.5455 9.18217 14.5455 9.09126 14.5455C9.00035 14.5455 8.81854 14.5455 8.72763 14.4545ZM18.1818 17.2727V14.5455C18.1818 14 17.8182 13.6364 17.2727 13.6364C16.7273 13.6364 16.3636 14 16.3636 14.5455V17.2727C16.3636 17.8182 16 18.1818 15.4545 18.1818H2.72727C2.18182 18.1818 1.81818 17.8182 1.81818 17.2727V14.5455C1.81818 14 1.45455 13.6364 0.909091 13.6364C0.363636 13.6364 0 14 0 14.5455V17.2727C0 18.8182 1.18182 20 2.72727 20H15.4545C17 20 18.1818 18.8182 18.1818 17.2727Z" fill="#8B8B8B"/>
</svg>
