<svg width="25" height="24" viewBox="0 0 25 24" fill="none" xmlns="http://www.w3.org/2000/svg">
<path fill-rule="evenodd" clip-rule="evenodd" d="M12.0358 2.83331C6.93732 2.83331 2.8418 6.91665 2.8418 12C2.8418 17.0833 6.93732 21.1666 12.0358 21.1666C17.1343 21.1666 21.2299 17.0833 21.2299 12C21.2299 6.91665 17.1343 2.83331 12.0358 2.83331ZM12.0358 19.5C7.85672 19.5 4.51344 16.1666 4.51344 12C4.51344 7.83331 7.85672 4.49998 12.0358 4.49998C16.2149 4.49998 19.5582 7.83331 19.5582 12C19.5582 16.1666 16.2149 19.5 12.0358 19.5ZM15.1284 15.0833C15.4627 14.75 15.4627 14.25 15.1284 13.9166L12.8716 11.6666V6.99998C12.8716 6.49998 12.5373 6.16665 12.0358 6.16665C11.5343 6.16665 11.2 6.49998 11.2 6.99998V12C11.2 12.25 11.2836 12.4166 11.4508 12.5833L13.9582 15.0833C14.1254 15.25 14.2925 15.3333 14.5433 15.3333C14.794 15.3333 14.9612 15.25 15.1284 15.0833Z" fill="#00B451"/>
</svg>
