<svg width="24" height="24" viewBox="0 0 24 24" fill="none" xmlns="http://www.w3.org/2000/svg">
<path fill-rule="evenodd" clip-rule="evenodd" d="M21.8745 10.7494C21.8954 10.7286 21.9163 10.7077 21.9163 10.666C22 10.5827 22 10.4994 22 10.416V10.3327V5.33237C22 4.83233 21.6653 4.49898 21.1632 4.49898C20.6611 4.49898 20.3264 4.83233 20.3264 5.33237V8.4159L17.8159 6.16575C16.9791 5.24903 15.8912 4.58232 14.7197 4.16562C12.6276 3.41557 10.3682 3.49891 8.35983 4.49898C6.35146 5.4157 4.84519 7.08248 4.09205 9.24929C3.92469 9.66598 4.17573 10.166 4.59414 10.2494C5.01255 10.416 5.51464 10.166 5.68201 9.74932C6.26778 8.08255 7.43933 6.74913 9.11297 5.99908C10.7029 5.24903 12.5439 5.16569 14.2176 5.74906C15.1381 6.08241 15.9749 6.58245 16.728 7.3325L19.0711 9.49931H16.1423C15.6402 9.49931 15.3054 9.83266 15.3054 10.3327C15.3054 10.8327 15.6402 11.1661 16.1423 11.1661H21.1632C21.2469 11.1661 21.4142 11.1661 21.4979 11.0827C21.5816 11.0827 21.6653 10.9994 21.749 10.9161C21.8326 10.9161 21.8326 10.8327 21.8326 10.8327C21.8326 10.7911 21.8536 10.7702 21.8745 10.7494ZM18.2343 14.2496C18.4017 13.8329 18.9038 13.5829 19.3222 13.7496C19.7406 13.8329 19.9916 14.333 19.9079 14.833C19.4895 15.9997 18.7364 17.0831 17.8996 17.9165C16.3096 19.5 14.2176 20.3334 11.9582 20.3334C9.69875 20.3334 7.60669 19.5 6.10042 17.8332L3.67364 15.4997V18.5832C3.67364 19.0833 3.33891 19.4166 2.83682 19.4166C2.33473 19.4166 2 19.0833 2 18.5832V13.5829V13.4996V13.3329C2 13.2912 2.02092 13.2704 2.04184 13.2496C2.06276 13.2287 2.08368 13.2079 2.08368 13.1662C2.16736 13.1662 2.16736 13.0829 2.16736 13.0829C2.16736 12.9995 2.25105 12.9162 2.33473 12.9162C2.33473 12.8329 2.41841 12.8329 2.41841 12.8329H2.58577H2.75314H7.77406C8.27615 12.8329 8.61088 13.1662 8.61088 13.6662C8.61088 14.1663 8.27615 14.4996 7.77406 14.4996H4.84519L7.18828 16.6664C8.5272 17.9999 10.2008 18.6666 11.9582 18.6666C13.7155 18.6666 15.4728 17.9999 16.6444 16.7498C17.3975 16.0831 17.8996 15.1663 18.2343 14.2496Z" fill="#8B8B8B"/>
</svg>
