<svg width="50" height="51" viewBox="0 0 50 51" fill="none" xmlns="http://www.w3.org/2000/svg">
<g clip-path="url(#clip0_20612_116714)">
<path d="M13.7835 30.5026H8V16.5541C8 12.7963 11.0463 9.75 14.8041 9.75H25.6907L30.1134 12.6418L25.6907 15.5335H15.4845C14.5451 15.5335 13.7835 16.2951 13.7835 17.2345V30.5026Z" fill="#1E4485"/>
<path d="M35.2166 21.9976L41.0001 21.9976L41.0001 35.946C41.0001 39.7038 37.9538 42.7501 34.196 42.7501L23.3094 42.7501L18.8867 39.8584L23.3094 36.9666L33.5156 36.9666C34.455 36.9666 35.2166 36.2051 35.2166 35.2656V21.9976Z" fill="#CF2030"/>
<path d="M32.1549 26.4201C32.1549 30.7416 28.6516 34.2448 24.3301 34.2448C20.0086 34.2448 16.5054 30.7416 16.5054 26.4201C16.5054 22.0986 20.0086 18.5953 24.3301 18.5953C28.6516 18.5953 32.1549 22.0986 32.1549 26.4201Z" fill="#F4EA0B"/>
</g>
<defs>
<clipPath id="clip0_20612_116714">
<rect width="40" height="40" fill="white" transform="translate(5 6.25)"/>
</clipPath>
</defs>
</svg>
