<svg width="20" height="20" viewBox="0 0 20 20" fill="none" xmlns="http://www.w3.org/2000/svg">
<path fill-rule="evenodd" clip-rule="evenodd" d="M5.13886 12.7778C5.55553 12.7778 5.83331 12.5 5.83331 12.0833C5.83331 11.6667 5.55553 11.3889 5.13886 11.3889H4.44442C4.02775 11.3889 3.74997 11.1111 3.74997 10.6944V4.44445C3.74997 4.02778 4.02775 3.75 4.44442 3.75H10.6944C11.1111 3.75 11.3889 4.02778 11.3889 4.44445V5.13889C11.3889 5.55556 11.6666 5.83334 12.0833 5.83334C12.5 5.83334 12.7778 5.55556 12.7778 5.13889V4.44445C12.7778 3.26389 11.875 2.36111 10.6944 2.36111H4.44442C3.26386 2.36111 2.36108 3.26389 2.36108 4.44445V10.6944C2.36108 11.875 3.26386 12.7778 4.44442 12.7778H5.13886ZM15.5555 7.22223H9.30553C8.12497 7.22223 7.2222 8.125 7.2222 9.30556V15.5556C7.2222 16.7361 8.12497 17.6389 9.30553 17.6389H15.5555C16.7361 17.6389 17.6389 16.7361 17.6389 15.5556V9.30556C17.6389 8.125 16.7361 7.22223 15.5555 7.22223ZM16.25 15.5556C16.25 15.9722 15.9722 16.25 15.5555 16.25H9.30553C8.88886 16.25 8.61108 15.9722 8.61108 15.5556V9.30556C8.61108 8.88889 8.88886 8.61111 9.30553 8.61111H15.5555C15.9722 8.61111 16.25 8.88889 16.25 9.30556V15.5556Z" fill="white"/>
</svg>
