<svg width="30" height="30" viewBox="0 0 30 30" fill="none" xmlns="http://www.w3.org/2000/svg">
<rect x="0.375" y="0.375" width="29.25" height="29.25" rx="6.625" stroke="#DF7301" stroke-width="0.75"/>
<path fill-rule="evenodd" clip-rule="evenodd" d="M6.88011 9.0246L14.1246 5.21262C14.6567 4.92913 15.2979 4.92913 15.83 5.21262L23.0744 9.0246C23.4495 9.2165 23.6894 9.60904 23.6894 10.0321C23.6894 10.6645 23.1748 11.1792 22.5511 11.1792H7.41222C6.7798 11.1792 6.26514 10.6645 6.26514 10.0321C6.26514 9.6134 6.50502 9.2165 6.88011 9.0246ZM8.09685 14.3893V18.0573C8.09685 18.8162 8.71182 19.4312 9.47073 19.4312C10.2296 19.4312 10.8446 18.8162 10.8446 18.0573V14.3893C10.8446 13.6304 10.2296 13.0154 9.47073 13.0154C8.71182 13.0154 8.09685 13.6304 8.09685 14.3893ZM13.6011 14.3893V18.0573C13.6011 18.8162 14.2161 19.4312 14.975 19.4312C15.7339 19.4312 16.3488 18.8162 16.3488 18.0573V14.3893C16.3488 13.6304 15.7339 13.0154 14.975 13.0154C14.2161 13.0154 13.6011 13.6304 13.6011 14.3893ZM19.027 21.2674H7.63902C6.88011 21.2674 6.26514 21.8867 6.26514 22.6456C6.26514 23.4045 6.88011 24.0195 7.63902 24.0195H18.0805L19.027 21.2674ZM23.6849 22.6456C23.6849 23.4045 23.0699 24.0195 22.311 24.0195H22.0362L23.5497 22.0525C23.6369 22.2313 23.6849 22.4319 23.6849 22.6456ZM24.3439 19.0561L23.9644 19.5446L22.6167 21.3023L22.0236 22.0699L20.5232 24.0195L19.8908 24.8395C19.616 25.2015 19.049 24.8962 19.1929 24.4687L19.3456 24.0195L20.0173 22.0699L20.2964 21.2674L20.7631 19.9153H17.8932C17.6795 19.9153 17.505 19.7452 17.4963 19.5446C17.4876 19.4922 17.4963 19.4399 17.5137 19.3832L19.9954 13.2989C20.0521 13.1375 20.2004 13.0328 20.3705 13.0328L23.1881 13.0067C23.2317 13.0067 23.2753 13.0154 23.3146 13.0285C23.5196 13.0983 23.6417 13.3251 23.5632 13.5475L21.3999 18.415H24.0211C24.3482 18.415 24.5358 18.7944 24.3395 19.0561H24.3439Z" fill="#3D3D3D"/>
</svg>
