<svg width="50" height="50" viewBox="0 0 50 50" fill="none" xmlns="http://www.w3.org/2000/svg">
<path d="M5.32104 30.138H5.62139L5.34224 31.3041C5.29984 31.4737 5.31044 31.608 5.36697 31.6928C5.42351 31.7776 5.52952 31.82 5.685 31.82C5.83694 31.82 5.96415 31.7776 6.06663 31.6928C6.16557 31.608 6.23271 31.4737 6.27511 31.3041L6.55427 30.138H6.85816L6.57194 31.3324C6.50833 31.5868 6.39879 31.7811 6.23624 31.9119C6.08076 32.0391 5.86875 32.1062 5.61433 32.1062C5.35991 32.1062 5.18323 32.0462 5.08782 31.9154C4.99241 31.7882 4.97474 31.5939 5.03481 31.3359L5.32104 30.138Z" fill="#3D3D3C"/>
<path d="M6.81226 32.0532L7.28576 30.0602L8.19037 31.2299C8.2151 31.2617 8.2363 31.297 8.26104 31.3359C8.28577 31.3747 8.30698 31.4171 8.33878 31.4631L8.6568 30.138H8.93596L8.46245 32.1239L7.54018 30.933C7.51545 30.9012 7.49424 30.8659 7.46951 30.8341C7.44477 30.7952 7.4271 30.7634 7.41297 30.721L7.09494 32.0532H6.81226Z" fill="#3D3D3C"/>
<path d="M8.91467 32.0532L9.37051 30.138H9.6744L9.21856 32.0532H8.91467Z" fill="#3D3D3C"/>
<path d="M9.64966 32.0532L10.1055 30.138H11.1479L11.0878 30.403H10.3528L10.2398 30.8765H10.9748L10.9076 31.1486H10.1726L9.95708 32.0462H9.65319V32.0532H9.64966Z" fill="#3D3D3C"/>
<path d="M11.0278 32.0532L11.4837 30.138H11.7876L11.3317 32.0532H11.0278Z" fill="#3D3D3C"/>
<path d="M11.7664 32.0532L12.2222 30.138H13.2646L13.2045 30.403H12.4695L12.3565 30.8836H13.0915L13.0243 31.1557H12.2893L12.1409 31.7741H12.8759L12.8088 32.0532H11.7664Z" fill="#3D3D3C"/>
<path d="M13.1586 32.0532L13.6144 30.138H14.0243C14.2893 30.138 14.4766 30.1521 14.5755 30.1804C14.6745 30.2087 14.7593 30.2511 14.8264 30.3182C14.9112 30.403 14.9678 30.5126 14.9925 30.6398C15.0172 30.7741 15.0066 30.926 14.9678 31.0921C14.9254 31.2617 14.8618 31.4101 14.777 31.5444C14.6922 31.6787 14.5826 31.7811 14.4554 31.8659C14.36 31.9331 14.2575 31.9755 14.1409 32.0038C14.0314 32.032 13.8653 32.0462 13.6462 32.0462H13.5649H13.155V32.0532H13.1586ZM13.5296 31.767H13.7875C13.9254 31.767 14.0349 31.7564 14.1091 31.7387C14.1868 31.7211 14.2505 31.6857 14.3141 31.6433C14.3989 31.5832 14.4695 31.5055 14.5296 31.4101C14.5861 31.3182 14.6285 31.2122 14.6568 31.0885C14.6851 30.9649 14.6957 30.8589 14.6816 30.7705C14.6674 30.6786 14.6356 30.6009 14.5755 30.5373C14.5331 30.4914 14.4801 30.4596 14.4095 30.4419C14.3388 30.4242 14.2292 30.4136 14.0738 30.4136H13.9642H13.8547L13.5296 31.767Z" fill="#3D3D3C"/>
<path d="M16.3671 31.1946L16.1622 32.0532H15.876L16.3318 30.138H16.7912C16.929 30.138 17.0244 30.1486 17.0845 30.1627C17.1445 30.1769 17.194 30.2016 17.2329 30.2405C17.2788 30.2829 17.3142 30.3465 17.3283 30.4207C17.3424 30.4984 17.3389 30.5762 17.3177 30.668C17.293 30.7599 17.2612 30.8447 17.2081 30.9189C17.1551 30.9967 17.0951 31.0567 17.0279 31.0991C16.9714 31.1309 16.9078 31.1592 16.8442 31.1769C16.777 31.191 16.6746 31.2016 16.5403 31.2016H16.4802H16.3671V31.1946ZM16.4449 30.9366H16.5226C16.6887 30.9366 16.8089 30.9189 16.876 30.8801C16.9431 30.8412 16.9855 30.7741 17.0103 30.6822C17.035 30.5832 17.0209 30.5055 16.9714 30.4666C16.9184 30.4242 16.8159 30.4066 16.6569 30.4066H16.5792L16.4449 30.9366Z" fill="#3D3D3C"/>
<path d="M18.353 32.0532L18.2576 31.5585H17.5155L17.1834 32.0532H16.8654L18.2435 30.0602L18.671 32.0532H18.353ZM17.6958 31.297H18.2152L18.1304 30.8588C18.1269 30.8306 18.1198 30.7988 18.1198 30.7634C18.1163 30.7246 18.1163 30.6857 18.1163 30.6433C18.0986 30.6857 18.0774 30.7246 18.0562 30.7634C18.0385 30.8023 18.0173 30.8341 17.9996 30.8624L17.6958 31.297Z" fill="#3D3D3C"/>
<path d="M19.1092 32.0532L19.3177 31.1804L18.936 30.145H19.2541L19.4908 30.7952C19.4943 30.8129 19.5014 30.8341 19.5085 30.8623C19.5191 30.8906 19.5226 30.9189 19.5332 30.9471C19.5509 30.9189 19.5721 30.8906 19.5898 30.8623C19.6074 30.8341 19.6286 30.8093 19.6463 30.7846L20.2011 30.1415H20.505L19.6145 31.1733L19.406 32.0461H19.1021V32.0532H19.1092Z" fill="#3D3D3C"/>
<path d="M22.0032 31.1062C22.0032 31.0921 22.0067 31.0496 22.0173 30.9825C22.0209 30.926 22.0279 30.8836 22.0315 30.8447C22.0138 30.8871 21.9926 30.9295 21.9714 30.979C21.9467 31.0214 21.9184 31.0708 21.8866 31.1133L21.1516 32.1345L20.9149 31.0921C20.9043 31.0496 20.8972 31.0072 20.8901 30.9684C20.8866 30.9295 20.8795 30.8871 20.8795 30.8482C20.8689 30.8871 20.8548 30.9295 20.8407 30.9754C20.8265 31.0178 20.8089 31.0673 20.7841 31.1133L20.3565 32.0532H20.0774L20.9961 30.0567L21.2576 31.2652C21.2612 31.2829 21.2682 31.3182 21.2718 31.3606C21.2753 31.403 21.2859 31.4595 21.2965 31.5267C21.3283 31.4701 21.3742 31.403 21.4308 31.3182C21.4449 31.2935 21.459 31.2793 21.4626 31.2652L22.2894 30.0567L22.2612 32.0532H21.982L22.0032 31.1062Z" fill="#3D3D3C"/>
<path d="M22.505 32.0532L22.9608 30.138H24.0033L23.9397 30.403H23.2047L23.0916 30.8836H23.8266L23.7594 31.1557H23.0244L22.876 31.7741H23.611L23.5439 32.0532H22.505Z" fill="#3D3D3C"/>
<path d="M23.8937 32.0532L24.3672 30.0602L25.2718 31.2299C25.2965 31.2617 25.3177 31.297 25.3425 31.3359C25.3672 31.3747 25.3884 31.4171 25.4202 31.4631L25.7382 30.138H26.0174L25.5439 32.1239L24.6216 30.9295C24.5969 30.8977 24.5757 30.8624 24.5509 30.8306C24.5262 30.7917 24.5085 30.7599 24.4944 30.7175L24.1764 32.0497H23.8972V32.0532H23.8937Z" fill="#3D3D3C"/>
<path d="M26.9891 30.3995L26.5934 32.0497H26.2895L26.6853 30.3995H26.1906L26.2506 30.1345H27.5439L27.4839 30.3995H26.9891Z" fill="#3D3D3C"/>
<path d="M27.3072 31.668L27.5792 31.555C27.5828 31.6398 27.6075 31.7069 27.6605 31.7493C27.7135 31.7917 27.7842 31.8164 27.8796 31.8164C27.9715 31.8164 28.0457 31.7917 28.1128 31.7387C28.18 31.6857 28.2224 31.6186 28.24 31.5338C28.2683 31.4207 28.2012 31.3182 28.0421 31.2334C28.0174 31.2193 28.0033 31.2087 27.9891 31.2051C27.8089 31.0991 27.6958 31.0108 27.6464 30.926C27.6004 30.8412 27.5898 30.7422 27.6181 30.6221C27.657 30.4666 27.7383 30.3429 27.8655 30.2405C27.9927 30.145 28.1376 30.092 28.3072 30.092C28.445 30.092 28.5545 30.1203 28.6358 30.1733C28.7171 30.2263 28.7595 30.3076 28.7736 30.4065L28.5086 30.5302C28.4838 30.4701 28.4556 30.4242 28.4167 30.3959C28.3778 30.3677 28.3319 30.3535 28.2754 30.3535C28.1941 30.3535 28.1234 30.3783 28.0669 30.4207C28.0103 30.4631 27.9715 30.5196 27.9538 30.5973C27.9255 30.7104 28.0068 30.82 28.1906 30.9189C28.2047 30.9295 28.2153 30.933 28.2224 30.9366C28.3849 31.0214 28.4944 31.1062 28.5404 31.1945C28.5863 31.2829 28.5969 31.3783 28.5687 31.509C28.5262 31.6892 28.4344 31.8306 28.2966 31.9401C28.1588 32.0461 27.9962 32.1027 27.8054 32.1027C27.6499 32.1027 27.5262 32.0638 27.4379 31.9896C27.3425 31.9154 27.3001 31.8058 27.3072 31.668Z" fill="#3D3D3C"/>
<path d="M29.5439 32.0532L29.9998 30.138H30.3037L29.8478 32.0532H29.5439Z" fill="#3D3D3C"/>
<path d="M30.286 32.0532L30.7595 30.0602L31.6641 31.2299C31.6889 31.2617 31.7101 31.297 31.7348 31.3359C31.7595 31.3747 31.7807 31.4171 31.8125 31.4631L32.1306 30.138H32.4097L31.9362 32.1239L31.0139 30.9295C30.9892 30.8977 30.968 30.8624 30.9433 30.8306C30.9185 30.7917 30.9009 30.7599 30.8867 30.7175L30.5687 32.0497H30.2895V32.0532H30.286Z" fill="#3D3D3C"/>
<path d="M33.3815 30.3995L32.9857 32.0497H32.6818L33.0776 30.3995H32.5829L32.643 30.1345H33.9363L33.8762 30.3995H33.3815Z" fill="#3D3D3C"/>
<path d="M33.7065 32.0532L34.1624 30.138H35.2083L35.1483 30.403H34.4133L34.3002 30.8836H35.0352L34.968 31.1557H34.2331L34.0846 31.7741H34.8196L34.7525 32.0532H33.7065Z" fill="#3D3D3C"/>
<path d="M35.5865 31.1945L35.3816 32.0497H35.0953L35.5512 30.1345H35.9752C36.0989 30.1345 36.1943 30.1451 36.2544 30.1592C36.3215 30.1733 36.3745 30.2016 36.4098 30.2405C36.4558 30.2864 36.4876 30.3465 36.5017 30.4207C36.5159 30.4914 36.5123 30.5726 36.4911 30.6645C36.4522 30.8164 36.3922 30.9401 36.2968 31.0249C36.2014 31.1097 36.0812 31.1627 35.9399 31.1804L36.371 32.0497H36.0282L35.6148 31.1945H35.5865V31.1945ZM35.6607 30.9507H35.7173C35.8798 30.9507 35.9893 30.9331 36.0494 30.8942C36.1095 30.8553 36.1554 30.7882 36.1766 30.6892C36.2014 30.5832 36.1908 30.509 36.1448 30.4666C36.0989 30.4242 35.9964 30.3995 35.8445 30.3995H35.7879L35.6607 30.9507Z" fill="#3D3D3C"/>
<path d="M36.5582 32.0532L37.0141 30.138H38.0565L37.9964 30.403H37.2614L37.1483 30.8765H37.8833L37.8162 31.1486H37.0812L36.8657 32.0462H36.5618V32.0532H36.5582Z" fill="#3D3D3C"/>
<path d="M39.0705 32.0532L38.9751 31.5585H38.2331L37.9009 32.0532H37.5829L38.961 30.0602L39.3886 32.0532H39.0705ZM38.4098 31.297H38.9292L38.8444 30.8588C38.8409 30.8306 38.8338 30.7988 38.8338 30.7634C38.8303 30.7246 38.8302 30.6857 38.8302 30.6433C38.8126 30.6857 38.7914 30.7246 38.7702 30.7634C38.7525 30.8023 38.7313 30.8341 38.7136 30.8624L38.4098 31.297Z" fill="#3D3D3C"/>
<path d="M41.364 30.6044C41.2968 30.5267 41.2156 30.4701 41.1308 30.4383C41.0459 30.3995 40.9505 30.3818 40.841 30.3818C40.636 30.3818 40.4558 30.4489 40.2933 30.5797C40.1307 30.714 40.0283 30.8871 39.9753 31.1027C39.9293 31.3076 39.947 31.4772 40.0424 31.615C40.1343 31.7493 40.2756 31.8129 40.4664 31.8129C40.576 31.8129 40.6855 31.7952 40.7951 31.7528C40.9046 31.714 41.0141 31.6539 41.1272 31.5726L41.0424 31.926C40.947 31.9861 40.8481 32.032 40.7421 32.0603C40.636 32.0885 40.5336 32.1027 40.4205 32.1027C40.2792 32.1027 40.1484 32.0779 40.0389 32.032C39.9293 31.9861 39.841 31.9119 39.7668 31.8164C39.6961 31.7246 39.6537 31.6186 39.6325 31.4949C39.6148 31.3712 39.6184 31.2369 39.6572 31.0956C39.689 30.9542 39.7491 30.8235 39.8233 30.6998C39.9011 30.5761 40 30.4666 40.1131 30.3783C40.2262 30.2829 40.3498 30.2122 40.4841 30.1627C40.6184 30.1132 40.7491 30.092 40.8869 30.092C40.9965 30.092 41.0954 30.1062 41.1908 30.138C41.2827 30.1698 41.3675 30.2193 41.4417 30.2864L41.364 30.6044Z" fill="#3D3D3C"/>
<path d="M41.3922 32.0532L41.848 30.138H42.8905L42.8304 30.403H42.0954L41.9823 30.8836H42.7173L42.6502 31.1557H41.9152L41.7668 31.7741H42.5018L42.4346 32.0532H41.3922Z" fill="#3D3D3C"/>
<path d="M35.8621 28.4701H33.7772L36.6748 18H38.7596L35.8621 28.4701Z" fill="#70706E"/>
<path d="M34.7772 18.3286C34.6359 18.1307 34.4097 18.0283 34.1058 18.0283H22.6428L22.0774 20.0813H24.1622H32.5016L31.8938 22.2721H23.5545V22.2686H21.4696L19.7382 28.5196H21.823L22.9856 24.3252H32.3638C32.6571 24.3252 32.9327 24.2262 33.1906 24.0248C33.4486 23.8234 33.6182 23.5796 33.6995 23.2827L34.8585 19.0919C34.9468 18.7809 34.9186 18.5265 34.7772 18.3286Z" fill="#70706E"/>
<path d="M18.5226 27.8128C18.4095 28.2263 18.0279 28.516 17.6003 28.516H6.84752C6.55423 28.516 6.33515 28.4171 6.19027 28.2157C6.04893 28.0178 6.01359 27.7704 6.0984 27.4736L8.72034 18.0247H10.8052L8.46592 26.4701H16.8123L19.1551 18.0283H21.2399L18.5226 27.8128Z" fill="#70706E"/>
<path d="M42.3639 18.0176L44.9999 23.2651L39.4557 28.5125L42.3639 18.0176Z" fill="#098041"/>
<path d="M40.5087 18.0176L43.1484 23.2651L37.597 28.5125L40.5087 18.0176Z" fill="#E97626"/>
</svg>
