<svg width="50" height="50" viewBox="0 0 50 50" fill="none" xmlns="http://www.w3.org/2000/svg">
<path fill-rule="evenodd" clip-rule="evenodd" d="M12.3752 14.5656L23.5938 8.66252C24.4178 8.2235 25.4107 8.2235 26.2347 8.66252L37.4533 14.5656C38.0341 14.8628 38.4056 15.4707 38.4056 16.1258C38.4056 17.1052 37.6086 17.9022 36.6428 17.9022H13.1992C12.2198 17.9022 11.4229 17.1052 11.4229 16.1258C11.4229 15.4774 11.7943 14.8628 12.3752 14.5656ZM14.2598 22.8733V28.5535C14.2598 29.7287 15.2121 30.681 16.3873 30.681C17.5625 30.681 18.5149 29.7287 18.5149 28.5535V22.8733C18.5149 21.6981 17.5625 20.7457 16.3873 20.7457C15.2121 20.7457 14.2598 21.6981 14.2598 22.8733ZM27.0383 22.88V28.5535C27.0383 28.8709 26.9707 29.1749 26.8424 29.445C26.633 29.9111 26.2548 30.2826 25.7955 30.4919H25.7888C25.5186 30.6203 25.2214 30.6878 24.9107 30.6878C23.7288 30.6878 22.7764 29.7355 22.7764 28.5535V22.88C22.7764 21.6981 23.7288 20.7457 24.9107 20.7457C26.0927 20.7457 27.0383 21.6981 27.0383 22.88ZM23.4182 37.7864L23.2088 37.577C22.6077 36.9759 22.2767 36.1789 22.2767 35.3279C22.2767 34.6728 22.4726 34.0514 22.8373 33.5246H13.5504C12.3684 33.5246 11.4229 34.4836 11.4229 35.6589C11.4229 36.8341 12.3684 37.7864 13.5504 37.7864H23.4182ZM35.5624 22.88V24.5213H33.0836C32.442 24.5213 31.8341 24.6699 31.3005 24.9333V22.88C31.3005 21.6981 32.2528 20.7457 33.4281 20.7457C34.6033 20.7457 35.5624 21.6981 35.5624 22.88ZM38.0004 35.3278C38.0004 36.449 37.0954 37.3541 35.9742 37.3541H30.3818V39.0899C30.3818 40.1165 29.1323 40.6366 28.4028 39.9071L24.6408 36.1451C24.1882 35.6925 24.1882 34.9563 24.6408 34.5038L25.6201 33.5245L28.4028 30.7485C28.7135 30.4378 29.1188 30.35 29.4835 30.4378C29.9698 30.5526 30.3818 30.9782 30.3818 31.5658V33.3016H35.9742C36.2984 33.3016 36.6091 33.3826 36.8792 33.5177C37.0143 33.5853 37.1427 33.6663 37.2642 33.7676C37.271 33.7676 37.2777 33.7744 37.2845 33.7811C37.6222 34.0648 37.8586 34.4565 37.9532 34.8956C37.9869 35.0374 38.0004 35.1792 38.0004 35.3278ZM40.6547 33.1531L44.4168 29.391C44.8693 28.9385 44.8693 28.2023 44.4168 27.7497L40.6547 23.9945C39.9253 23.265 38.6758 23.7783 38.6758 24.8117V26.5475H33.0834C32.3134 26.5475 31.6447 26.973 31.3003 27.6079C31.1449 27.8916 31.0571 28.2225 31.0571 28.5738C31.0571 28.7223 31.0706 28.8642 31.1044 29.006C31.2327 29.6139 31.638 30.1137 32.1783 30.3839C32.3472 30.4717 32.5295 30.5324 32.7186 30.5662H32.7254C32.847 30.5865 32.9618 30.6 33.0834 30.6H38.6758V32.3358C38.6758 32.9234 39.081 33.3422 39.5673 33.457C39.932 33.5515 40.344 33.4637 40.6547 33.1531Z" fill="#3D3D3D"/>
</svg>
