<svg width="200" height="30" viewBox="0 0 200 30" fill="none" xmlns="http://www.w3.org/2000/svg">
<path d="M27.7295 21.6582H24.6013H24.5827L24.5791 21.6589L24.5659 21.6582C21.5097 21.6582 19.0238 19.173 19.0238 16.1178C19.0238 13.0626 21.5097 10.5774 24.5659 10.5774C25.3996 10.5774 26.0772 9.89945 26.0772 9.06665C26.0772 8.23325 25.399 7.55585 24.5659 7.55585C19.8424 7.55525 16 11.3964 16 16.1178C16 20.8393 19.8424 24.6805 24.5653 24.6805H24.5839L24.5875 24.6798L24.6007 24.6805H27.7289C28.5626 24.6805 29.2402 24.0025 29.2402 23.1697C29.2408 22.3363 28.5632 21.6582 27.7295 21.6582Z" fill="white"/>
<path d="M33.0045 6.5478C31.1985 6.5478 29.7292 5.079 29.7292 3.2736C29.7292 1.4682 31.1985 0 33.0045 0C34.8104 0 36.2797 1.4688 36.2797 3.2742C36.2797 5.0796 34.8104 6.5478 33.0045 6.5478ZM33.0045 1.5108C32.0322 1.5108 31.2411 2.3016 31.2411 3.2736C31.2411 4.2456 32.0322 5.0364 33.0045 5.0364C33.9768 5.0364 34.7678 4.2456 34.7678 3.2736C34.7678 2.3016 33.9768 1.5108 33.0045 1.5108Z" fill="white"/>
<path d="M33.0046 7.55518C28.6574 7.55518 25.447 10.5894 25.447 16.1178V28.4892C25.447 29.3226 26.1252 30 26.9583 30C27.792 30 28.4696 29.322 28.4696 28.4892V24.6804H33.145C33.1919 24.6804 33.2369 24.675 33.2813 24.669L33.3161 24.6642C37.9351 24.5076 41.5687 20.7534 41.5687 16.1178C41.5699 11.3964 37.7275 7.55518 33.0046 7.55518ZM28.4702 16.1178C28.4702 12.6042 30.6729 10.5774 33.0046 10.5774C36.0608 10.5774 38.5467 13.0626 38.5467 16.1178C38.5467 19.173 36.0608 21.6582 33.0046 21.6582H28.4702V16.1178V16.1178Z" fill="white"/>
<path d="M61.07 11.3952C61.2447 11.5878 61.3323 11.8158 61.3323 12.0786C61.3317 12.4644 61.1385 12.7878 60.7525 13.0494C60.5767 13.1718 60.375 13.2324 60.1482 13.2324C59.7448 13.2318 59.4033 13.0734 59.1236 12.7584C58.6861 12.285 58.2095 11.9382 57.6934 11.718C57.1766 11.4984 56.5854 11.388 55.9198 11.3868C54.5706 11.3844 53.4753 11.8338 52.6326 12.7344C51.7905 13.6356 51.368 14.8296 51.3656 16.3182C51.3644 17.2644 51.5595 18.1098 51.9526 18.8544C52.3457 19.6002 52.8961 20.1828 53.6049 20.604C54.3137 21.0252 55.124 21.2376 56.0351 21.2388C57.2264 21.2412 58.1909 20.9358 58.928 20.3238C59.2611 20.0796 59.5852 19.9572 59.9009 19.9578C60.1452 19.9578 60.3744 20.037 60.5833 20.1954C60.9158 20.4762 61.082 20.7912 61.0814 21.1416C61.0808 21.405 60.9758 21.6408 60.7651 21.8502C59.5017 23.0214 57.9239 23.6058 56.0321 23.6028C54.6474 23.6004 53.4044 23.283 52.3013 22.6506C51.1987 22.0182 50.3369 21.1458 49.7175 20.0322C49.0969 18.9192 48.7884 17.679 48.7908 16.3128C48.7932 14.9124 49.0975 13.656 49.7037 12.5448C50.3099 11.4336 51.1567 10.5684 52.2443 9.94802C53.3318 9.32822 54.5586 9.01922 55.9246 9.02162C57.9905 9.02582 59.7064 9.81662 61.07 11.3952Z" fill="white"/>
<path d="M77.0512 9.819C78.0139 10.3464 78.7666 11.1138 79.3073 12.1218C79.8487 13.1298 80.1188 14.343 80.1164 15.762L80.1062 22.2246C80.1056 22.6104 79.9772 22.9296 79.7227 23.1828C79.4682 23.4372 79.1483 23.5632 78.7636 23.5626C78.3776 23.562 78.0583 23.4348 77.8045 23.1798C77.5506 22.9254 77.4245 22.6056 77.4251 22.2204L77.4353 15.7578C77.4383 14.3388 77.0584 13.2654 76.298 12.537C75.5364 11.8092 74.5256 11.4438 73.2634 11.4414C72.5282 11.4402 71.8578 11.5884 71.2528 11.8848C70.6472 12.1818 70.1736 12.5838 69.8315 13.0908C69.4888 13.5984 69.3172 14.1666 69.316 14.7972L69.3034 22.2066C69.3028 22.5924 69.1797 22.911 68.9343 23.1648C68.6882 23.4186 68.3635 23.5446 67.9607 23.5446C67.576 23.544 67.2555 23.4162 67.0022 23.1612C66.749 22.9074 66.6223 22.587 66.6229 22.2018L66.6529 4.3374C66.6535 3.9348 66.7808 3.6108 67.0353 3.366C67.2891 3.1218 67.6102 2.9994 67.995 3C68.3983 3.0006 68.7218 3.1236 68.9673 3.3696C69.2115 3.6156 69.3334 3.9396 69.3334 4.3422L69.3226 10.7784C69.8844 10.2192 70.5506 9.7872 71.3224 9.4812C72.0931 9.1764 72.9171 9.0246 73.7934 9.0258C75.0034 9.0276 76.0885 9.2922 77.0512 9.819Z" fill="white"/>
<path d="M96.091 10.0482C97.1846 10.6896 98.0495 11.5668 98.6875 12.6798C99.3255 13.7934 99.643 15.0324 99.6406 16.3986L99.631 22.2576C99.6304 22.6434 99.5019 22.962 99.2474 23.2158C98.9936 23.4696 98.6731 23.5956 98.2883 23.5956C97.9024 23.595 97.5831 23.4672 97.3292 23.2122C97.0754 22.9584 96.9493 22.6392 96.9499 22.2534L96.9511 21.2814C96.3371 22.0332 95.5917 22.6182 94.7154 23.037C93.8385 23.4564 92.892 23.6652 91.8753 23.664C90.6143 23.6616 89.4716 23.3442 88.447 22.7118C87.4231 22.08 86.6189 21.2076 86.0337 20.094C85.4485 18.9804 85.1574 17.7408 85.1598 16.3746C85.1622 15.0084 85.4797 13.7706 86.1117 12.6594C86.7443 11.5482 87.6176 10.6746 88.7309 10.0368C89.8449 9.39959 91.0765 9.08099 92.4257 9.08339C93.7761 9.08519 94.9969 9.40739 96.091 10.0482ZM94.785 20.6598C95.4957 20.2326 96.0526 19.647 96.4572 18.903C96.8611 18.159 97.0645 17.3232 97.0657 16.3944C97.0669 15.4662 96.8671 14.6256 96.4662 13.8714C96.0634 13.1178 95.5095 12.5256 94.8 12.0954C94.0918 11.6652 93.2984 11.4492 92.4227 11.448C91.5464 11.4468 90.7536 11.6598 90.0429 12.0882C89.3329 12.516 88.7705 13.1064 88.3588 13.8582C87.9453 14.6106 87.7376 15.4512 87.7364 16.3794C87.7352 17.3082 87.9393 18.1446 88.3504 18.8892C88.7609 19.635 89.3203 20.2224 90.0291 20.652C90.738 21.0828 91.5308 21.2988 92.4071 21.3C93.2816 21.3012 94.075 21.0882 94.785 20.6598Z" fill="white"/>
<path d="M104.813 3.42899C105.059 3.18479 105.374 3.06239 105.76 3.06299C106.144 3.06359 106.46 3.18659 106.705 3.43199C106.95 3.67859 107.072 3.99359 107.072 4.37879L107.048 18.723C107.047 19.3716 107.168 19.9056 107.413 20.3262C107.657 20.7468 107.972 20.958 108.358 20.9586L109.016 20.9592C109.365 20.9598 109.65 21.0828 109.869 21.3288C110.087 21.5742 110.196 21.8898 110.196 22.275C110.196 22.6608 110.027 22.9752 109.694 23.22C109.361 23.4648 108.932 23.5866 108.406 23.586H108.354C107.6 23.5848 106.922 23.3778 106.317 22.965C105.714 22.5522 105.245 21.9732 104.914 21.2286C104.583 20.484 104.418 19.6476 104.419 18.7188L104.443 4.37459C104.445 3.98939 104.568 3.67439 104.813 3.42899Z" fill="white"/>
<path d="M123.604 10.0674C124.699 10.6914 125.556 11.5554 126.177 12.6594C126.796 13.764 127.105 15.0258 127.103 16.4442C127.1 17.8458 126.792 19.0968 126.177 20.1996C125.562 21.3018 124.706 22.1634 123.61 22.7826C122.514 23.403 121.265 23.7114 119.863 23.709C118.461 23.7066 117.21 23.394 116.107 22.77C115.005 22.1472 114.148 21.2826 113.535 20.178C112.924 19.0734 112.62 17.8212 112.622 16.4196C112.624 15.0006 112.933 13.7406 113.548 12.6378C114.163 11.5356 115.023 10.6746 116.128 10.0542C117.233 9.43436 118.486 9.12536 119.888 9.12776C121.272 9.13136 122.511 9.44396 123.604 10.0674ZM117.479 12.12C116.768 12.5388 116.21 13.125 115.807 13.8768C115.402 14.6298 115.199 15.4788 115.198 16.4244C115.196 17.37 115.396 18.216 115.798 18.96C116.199 19.7058 116.755 20.289 117.464 20.7102C118.173 21.1314 118.974 21.3438 119.868 21.345C120.761 21.3462 121.564 21.1374 122.273 20.718C122.984 20.2986 123.537 19.7172 123.932 18.9732C124.328 18.2298 124.527 17.385 124.528 16.4388C124.529 15.4926 124.334 14.6436 123.94 13.8894C123.547 13.1358 122.997 12.5484 122.288 12.1266C121.579 11.7054 120.777 11.4942 119.884 11.4924C118.99 11.4918 118.189 11.7006 117.479 12.12Z" fill="white"/>
<path d="M143.341 10.1268C144.452 10.7682 145.323 11.6454 145.951 12.7584C146.58 13.872 146.893 15.1116 146.891 16.4772C146.889 17.8434 146.593 19.0824 146.004 20.193C145.416 21.3042 144.608 22.1742 143.583 22.8036C142.557 23.433 141.413 23.7456 140.151 23.7432C139.135 23.742 138.189 23.5296 137.314 23.1078C136.439 22.6866 135.694 22.0986 135.083 21.3444L135.071 28.4388C135.07 28.8408 134.947 29.1648 134.701 29.4102C134.456 29.655 134.132 29.7774 133.728 29.7768C133.343 29.7762 133.023 29.652 132.769 29.4072C132.516 29.16 132.39 28.836 132.391 28.4346L132.411 16.4538C132.413 15.0876 132.734 13.8492 133.376 12.738C134.018 11.6268 134.886 10.7532 135.982 10.1154C137.078 9.47822 138.3 9.15962 139.65 9.16262C141 9.16442 142.23 9.48602 143.341 10.1268ZM142.01 20.739C142.72 20.3112 143.282 19.725 143.695 18.9822C144.108 18.2382 144.316 17.4024 144.317 16.4736C144.318 15.5454 144.114 14.7042 143.704 13.9506C143.293 13.197 142.734 12.6054 142.025 12.1746C141.316 11.7444 140.523 11.529 139.647 11.5272C138.771 11.526 137.978 11.7384 137.268 12.1668C136.557 12.5946 136 13.185 135.595 13.9368C135.191 14.6892 134.988 15.5298 134.987 16.458C134.986 17.3868 135.185 18.2232 135.586 18.9678C135.989 19.7124 136.543 20.3004 137.253 20.7306C137.961 21.1608 138.754 21.3774 139.63 21.3786C140.506 21.3804 141.299 21.1668 142.01 20.739Z" fill="white"/>
<path d="M162.395 10.1585C163.489 10.7999 164.354 11.6771 164.992 12.7901C165.63 13.9037 165.947 15.1427 165.945 16.5089L165.935 22.3679C165.934 22.7537 165.806 23.0723 165.552 23.3261C165.298 23.5799 164.977 23.7059 164.592 23.7059C164.206 23.7053 163.887 23.5775 163.633 23.3225C163.379 23.0687 163.253 22.7495 163.254 22.3637L163.255 21.3917C162.641 22.1435 161.895 22.7285 161.019 23.1473C160.142 23.5667 159.195 23.7755 158.179 23.7743C156.918 23.7719 155.775 23.4545 154.751 22.8221C153.727 22.1903 152.922 21.3179 152.337 20.2043C151.752 19.0907 151.461 17.8511 151.463 16.4849C151.466 15.1187 151.783 13.8809 152.415 12.7697C153.048 11.6585 153.921 10.7849 155.034 10.1471C156.148 9.50994 157.38 9.19134 158.729 9.19374C160.08 9.19614 161.3 9.51774 162.395 10.1585ZM161.088 20.7701C161.799 20.3429 162.356 19.7573 162.761 19.0133C163.165 18.2693 163.369 17.4335 163.37 16.5047C163.371 15.5765 163.171 14.7359 162.769 13.9817C162.366 13.2281 161.812 12.6359 161.103 12.2057C160.395 11.7755 159.601 11.5595 158.726 11.5583C157.849 11.5571 157.056 11.7701 156.346 12.1985C155.636 12.6263 155.073 13.2167 154.662 13.9685C154.248 14.7209 154.04 15.5615 154.039 16.4897C154.038 17.4185 154.242 18.2549 154.653 18.9995C155.064 19.7447 155.623 20.3327 156.332 20.7623C157.041 21.1931 157.834 21.4091 158.71 21.4103C159.585 21.4115 160.378 21.1991 161.088 20.7701Z" fill="white"/>
<path d="M183.063 10.4952C183.063 10.6704 183.01 10.881 182.904 11.1258L174.832 29.1876C174.621 29.73 174.279 30.0006 173.806 30C173.631 30 173.42 29.9466 173.176 29.8422C172.651 29.6118 172.389 29.2704 172.39 28.8162C172.39 28.605 172.442 28.3956 172.548 28.1856L175.186 22.278L169.293 11.0502C169.206 10.8924 169.161 10.7082 169.162 10.4982C169.162 10.2708 169.234 10.0608 169.374 9.8676C169.515 9.6756 169.698 9.5262 169.926 9.4218C170.084 9.3522 170.258 9.3174 170.452 9.318C170.941 9.3186 171.309 9.5652 171.555 10.0554L176.348 19.6266L180.595 10.0974C180.823 9.5898 181.164 9.3366 181.62 9.3372C181.848 9.3378 182.058 9.3822 182.251 9.4698C182.793 9.6804 183.064 10.0224 183.063 10.4952Z" fill="white"/>
</svg>
