<svg width="150" height="26" viewBox="0 0 150 26" fill="none" xmlns="http://www.w3.org/2000/svg">
<g clip-path="url(#clip0_222_2608)">
<g clip-path="url(#clip1_222_2608)">
<path d="M9.77 18.55H7.165H7.15H7.145H7.135C4.59 18.55 2.52 16.48 2.52 13.935C2.52 11.39 4.59 9.31999 7.135 9.31999C7.83 9.31999 8.395 8.75499 8.395 8.05999C8.395 7.36499 7.83 6.79999 7.135 6.79999C3.2 6.79499 0 9.99499 0 13.93C0 17.865 3.2 21.065 7.135 21.065H7.15H7.155H7.165H9.77C10.465 21.065 11.03 20.5 11.03 19.805C11.03 19.115 10.465 18.55 9.77 18.55Z" fill="url(#paint0_linear_222_2608)"/>
<path d="M14.165 5.955C12.66 5.955 11.435 4.73 11.435 3.225C11.435 1.72 12.66 0.5 14.165 0.5C15.67 0.5 16.895 1.725 16.895 3.23C16.895 4.735 15.67 5.955 14.165 5.955ZM14.165 1.76C13.355 1.76 12.695 2.42 12.695 3.23C12.695 4.04 13.355 4.7 14.165 4.7C14.975 4.7 15.635 4.04 15.635 3.23C15.635 2.42 14.975 1.76 14.165 1.76Z" fill="#FF8B00"/>
<path d="M14.165 6.795C10.545 6.795 7.87001 9.325 7.87001 13.93V24.24C7.87001 24.935 8.43501 25.5 9.13001 25.5C9.82501 25.5 10.39 24.935 10.39 24.24V21.065H14.285C14.325 21.065 14.36 21.06 14.4 21.055L14.43 21.05C18.28 20.92 21.305 17.79 21.305 13.93C21.3 9.995 18.1 6.795 14.165 6.795ZM10.39 13.93C10.39 11 12.225 9.315 14.17 9.315C16.715 9.315 18.785 11.385 18.785 13.93C18.785 16.475 16.715 18.545 14.17 18.545H10.39V13.93V13.93Z" fill="url(#paint1_linear_222_2608)"/>
<path d="M37.545 9.995C37.69 10.155 37.765 10.345 37.765 10.565C37.765 10.885 37.605 11.155 37.28 11.375C37.135 11.475 36.965 11.53 36.775 11.525C36.44 11.525 36.155 11.395 35.92 11.13C35.555 10.735 35.16 10.445 34.73 10.265C34.3 10.08 33.805 9.99 33.25 9.99C32.125 9.99 31.215 10.36 30.51 11.115C29.81 11.865 29.455 12.86 29.455 14.1C29.455 14.89 29.615 15.595 29.945 16.215C30.27 16.835 30.73 17.32 31.32 17.675C31.91 18.025 32.585 18.205 33.345 18.205C34.335 18.205 35.14 17.955 35.755 17.445C36.03 17.24 36.305 17.14 36.565 17.14C36.77 17.14 36.96 17.205 37.135 17.34C37.41 17.575 37.55 17.835 37.55 18.13C37.55 18.35 37.46 18.545 37.285 18.72C36.23 19.695 34.92 20.185 33.34 20.18C32.185 20.18 31.15 19.915 30.23 19.385C29.31 18.86 28.595 18.13 28.075 17.205C27.56 16.28 27.3 15.245 27.305 14.105C27.305 12.94 27.56 11.89 28.065 10.965C28.57 10.04 29.275 9.32 30.18 8.8C31.085 8.285 32.11 8.025 33.245 8.03C34.98 8.02 36.41 8.68 37.545 9.995Z" fill="#93D500"/>
<path d="M50.86 8.685C51.66 9.125 52.29 9.765 52.74 10.605C53.19 11.445 53.415 12.455 53.415 13.64L53.405 19.025C53.405 19.345 53.295 19.615 53.085 19.825C52.875 20.035 52.605 20.14 52.285 20.14C51.965 20.14 51.695 20.035 51.485 19.82C51.275 19.61 51.17 19.34 51.17 19.02L51.18 13.635C51.18 12.45 50.865 11.56 50.235 10.95C49.6 10.345 48.76 10.04 47.705 10.035C47.09 10.035 46.535 10.155 46.03 10.405C45.525 10.65 45.13 10.985 44.845 11.41C44.56 11.835 44.415 12.305 44.415 12.83L44.405 19.005C44.405 19.325 44.3 19.59 44.1 19.805C43.895 20.015 43.625 20.12 43.29 20.12C42.97 20.12 42.705 20.015 42.49 19.8C42.28 19.59 42.175 19.32 42.175 19L42.2 4.115C42.2 3.78 42.305 3.51 42.52 3.305C42.73 3.1 43 3 43.32 3C43.655 3 43.925 3.105 44.13 3.31C44.335 3.515 44.435 3.785 44.435 4.12L44.425 9.485C44.895 9.02 45.45 8.66 46.09 8.405C46.73 8.15 47.42 8.025 48.15 8.025C49.155 8.025 50.06 8.245 50.86 8.685Z" fill="#93D500"/>
<path d="M66.72 8.875C67.63 9.41 68.35 10.14 68.885 11.07C69.415 12 69.68 13.03 69.68 14.17L69.67 19.055C69.67 19.375 69.56 19.64 69.35 19.855C69.14 20.065 68.87 20.17 68.55 20.17C68.23 20.17 67.96 20.065 67.75 19.85C67.54 19.64 67.435 19.37 67.435 19.05V18.24C66.925 18.865 66.3 19.355 65.57 19.705C64.84 20.055 64.05 20.23 63.205 20.225C62.155 20.225 61.205 19.96 60.35 19.43C59.495 18.905 58.825 18.175 58.34 17.25C57.855 16.32 57.61 15.29 57.61 14.15C57.61 13.01 57.875 11.98 58.405 11.055C58.93 10.13 59.66 9.4 60.585 8.87C61.515 8.34 62.54 8.075 63.665 8.075C64.795 8.07 65.81 8.34 66.72 8.875ZM65.635 17.715C66.225 17.36 66.69 16.87 67.03 16.25C67.365 15.63 67.535 14.935 67.535 14.16C67.535 13.385 67.37 12.685 67.035 12.06C66.7 11.43 66.24 10.94 65.645 10.58C65.055 10.22 64.395 10.04 63.665 10.04C62.935 10.04 62.275 10.215 61.685 10.575C61.095 10.93 60.625 11.425 60.28 12.05C59.935 12.675 59.765 13.375 59.76 14.15C59.76 14.925 59.93 15.62 60.27 16.24C60.61 16.86 61.08 17.35 61.67 17.71C62.26 18.07 62.92 18.25 63.65 18.25C64.38 18.25 65.04 18.075 65.635 17.715Z" fill="#93D500"/>
<path d="M73.99 3.36001C74.195 3.15501 74.455 3.05501 74.78 3.05501C75.1 3.05501 75.365 3.16001 75.565 3.36501C75.77 3.57001 75.87 3.83501 75.87 4.15501L75.85 16.1C75.85 16.64 75.95 17.085 76.155 17.435C76.36 17.785 76.62 17.96 76.94 17.96H77.485C77.775 17.96 78.015 18.065 78.195 18.27C78.375 18.475 78.465 18.735 78.465 19.06C78.465 19.38 78.325 19.645 78.045 19.845C77.765 20.05 77.41 20.15 76.97 20.15H76.925C76.295 20.15 75.73 19.975 75.23 19.635C74.725 19.29 74.335 18.81 74.06 18.19C73.785 17.57 73.645 16.87 73.65 16.1L73.67 4.14501C73.68 3.82501 73.785 3.56001 73.99 3.36001Z" fill="#93D500"/>
<path d="M89.64 8.89C90.55 9.40999 91.265 10.13 91.785 11.05C92.3 11.97 92.56 13.02 92.555 14.205C92.555 15.375 92.295 16.415 91.785 17.335C91.27 18.255 90.56 18.97 89.645 19.49C88.73 20.005 87.69 20.265 86.525 20.26C85.355 20.26 84.3149 19.995 83.3949 19.475C82.4749 18.955 81.7649 18.235 81.2549 17.315C80.7449 16.395 80.4949 15.35 80.4949 14.185C80.4949 13.005 80.7549 11.95 81.2649 11.035C81.7799 10.115 82.4949 9.4 83.4149 8.88C84.3349 8.365 85.38 8.105 86.55 8.11C87.7 8.11 88.73 8.37 89.64 8.89ZM84.5399 10.6C83.9499 10.95 83.4849 11.435 83.1449 12.065C82.8099 12.69 82.6399 13.4 82.6349 14.19C82.6349 14.98 82.7999 15.685 83.1349 16.305C83.4699 16.925 83.9299 17.41 84.5249 17.765C85.1149 18.115 85.785 18.295 86.525 18.295C87.27 18.295 87.935 18.12 88.53 17.775C89.12 17.425 89.585 16.94 89.91 16.32C90.24 15.7 90.405 14.995 90.405 14.21C90.405 13.425 90.245 12.715 89.915 12.085C89.59 11.455 89.13 10.965 88.54 10.615C87.95 10.265 87.28 10.09 86.54 10.085C85.8 10.075 85.13 10.25 84.5399 10.6Z" fill="#93D500"/>
<path d="M106.085 8.93999C107.01 9.47499 107.735 10.205 108.26 11.135C108.785 12.065 109.045 13.095 109.045 14.235C109.045 15.375 108.795 16.405 108.305 17.33C107.815 18.255 107.14 18.98 106.285 19.505C105.43 20.03 104.475 20.29 103.425 20.29C102.58 20.29 101.79 20.11 101.06 19.76C100.33 19.41 99.71 18.92 99.2 18.29L99.19 24.2C99.19 24.535 99.085 24.805 98.88 25.01C98.675 25.215 98.405 25.315 98.07 25.315C97.75 25.315 97.48 25.21 97.27 25.005C97.06 24.8 96.955 24.53 96.955 24.195L96.97 14.21C96.97 13.07 97.24 12.04 97.775 11.115C98.31 10.19 99.035 9.46 99.945 8.93C100.86 8.39999 101.875 8.13499 103 8.13499C104.135 8.13499 105.16 8.40499 106.085 8.93999ZM104.975 17.78C105.565 17.425 106.035 16.935 106.38 16.315C106.725 15.695 106.895 15 106.9 14.225C106.9 13.45 106.73 12.75 106.39 12.12C106.045 11.49 105.58 11 104.99 10.64C104.4 10.28 103.74 10.1 103.01 10.1C102.28 10.1 101.62 10.275 101.03 10.635C100.44 10.99 99.975 11.485 99.635 12.11C99.3 12.735 99.13 13.44 99.13 14.21C99.13 14.985 99.295 15.68 99.63 16.3C99.965 16.92 100.425 17.41 101.02 17.77C101.61 18.13 102.27 18.31 103 18.31C103.725 18.315 104.385 18.14 104.975 17.78Z" fill="#FF8B2C"/>
<path d="M121.955 8.96501C122.865 9.50001 123.585 10.23 124.12 11.16C124.65 12.09 124.915 13.12 124.915 14.26L124.905 19.145C124.905 19.465 124.795 19.73 124.585 19.945C124.375 20.155 124.105 20.26 123.785 20.26C123.465 20.26 123.195 20.155 122.985 19.94C122.775 19.73 122.67 19.46 122.67 19.14V18.33C122.16 18.955 121.535 19.445 120.805 19.795C120.075 20.145 119.285 20.32 118.44 20.315C117.39 20.315 116.44 20.05 115.585 19.52C114.73 18.995 114.06 18.265 113.575 17.34C113.09 16.41 112.845 15.38 112.845 14.24C112.845 13.1 113.11 12.07 113.64 11.145C114.165 10.22 114.895 9.49001 115.82 8.96001C116.75 8.43001 117.775 8.16501 118.9 8.16501C120.03 8.16501 121.045 8.43001 121.955 8.96501ZM120.87 17.81C121.46 17.455 121.925 16.965 122.265 16.345C122.6 15.725 122.77 15.03 122.775 14.255C122.775 13.48 122.61 12.78 122.275 12.155C121.94 11.525 121.48 11.035 120.885 10.675C120.295 10.315 119.635 10.135 118.905 10.135C118.175 10.135 117.515 10.31 116.925 10.67C116.335 11.025 115.865 11.52 115.52 12.145C115.175 12.77 115.005 13.47 115 14.245C115 15.02 115.17 15.715 115.51 16.335C115.85 16.955 116.32 17.445 116.91 17.805C117.5 18.165 118.16 18.345 118.89 18.345C119.615 18.345 120.28 18.165 120.87 17.81Z" fill="#FF8B2C"/>
<path d="M139.175 9.245C139.175 9.39 139.13 9.565 139.04 9.77L132.315 24.82C132.14 25.27 131.855 25.495 131.46 25.495C131.315 25.495 131.14 25.45 130.935 25.365C130.495 25.175 130.28 24.89 130.28 24.51C130.28 24.335 130.325 24.16 130.41 23.985L132.61 19.06L127.7 9.705C127.625 9.575 127.59 9.42 127.59 9.245C127.59 9.055 127.65 8.88 127.765 8.72C127.88 8.56 128.035 8.435 128.225 8.35C128.355 8.29 128.5 8.265 128.665 8.265C129.075 8.265 129.38 8.47 129.585 8.88L133.58 16.855L137.12 8.915C137.31 8.49 137.595 8.28 137.975 8.28C138.165 8.28 138.34 8.315 138.5 8.39C138.95 8.565 139.175 8.85 139.175 9.245Z" fill="#FF8B2C"/>
</g>
</g>
<defs>
<linearGradient id="paint0_linear_222_2608" x1="5.90129" y1="21.4104" x2="4.63939" y2="6.98682" gradientUnits="userSpaceOnUse">
<stop offset="0.000783944" stop-color="#00AA5B"/>
<stop offset="0.1614" stop-color="#00B451"/>
<stop offset="0.9996" stop-color="#93D500"/>
</linearGradient>
<linearGradient id="paint1_linear_222_2608" x1="19.2833" y1="8.96238" x2="5.67708" y2="22.5686" gradientUnits="userSpaceOnUse">
<stop offset="0.000408522" stop-color="#00B451"/>
<stop offset="0.4047" stop-color="#21BB3F"/>
<stop offset="1" stop-color="#93D500"/>
</linearGradient>
<clipPath id="clip0_222_2608">
<rect width="150" height="25" fill="white" transform="translate(0 0.5)"/>
</clipPath>
<clipPath id="clip1_222_2608">
<rect width="139.175" height="25" fill="white" transform="translate(0 0.5)"/>
</clipPath>
</defs>
</svg>
