<svg width="20" height="21" viewBox="0 0 20 21" fill="none" xmlns="http://www.w3.org/2000/svg">
<g clip-path="url(#clip0_20550_107366)">
<path d="M17.0711 17.8209C20.9763 13.9157 20.9763 7.58405 17.0711 3.67881C13.1658 -0.226433 6.83418 -0.226433 2.92893 3.67881C-0.976311 7.58405 -0.976311 13.9157 2.92893 17.8209C6.83418 21.7262 13.1658 21.7262 17.0711 17.8209Z" fill="#333083"/>
<path d="M10 20.7486C15.5223 20.7486 20 16.2721 20 10.7486H0C0 16.2709 4.47647 20.7486 10 20.7486Z" fill="#C31620"/>
<path d="M3.00854 3.60028C1.15291 5.41638 0 7.94794 0 10.7499C0 13.5518 1.15291 16.0834 3.00854 17.8982L10.1224 10.7499L3.00854 3.60028Z" fill="white"/>
<path d="M5.36858 10.8864C5.36858 10.917 5.36475 10.9476 5.3571 10.9769L6.21031 11.1299L6.00498 11.283L5.32777 11.107C5.29334 11.2205 5.24997 11.3251 5.19641 11.4195L5.85066 11.7778V12.0048L5.12754 11.5151C5.11606 11.5381 5.09948 11.5623 5.07653 11.5891L5.85066 12.1872V12.5456H5.48081L4.88905 11.7778C4.86609 11.797 4.83931 11.8174 4.80998 11.8403L5.30481 12.5456H5.07653L4.7003 11.9079C4.6021 11.9653 4.49752 12.0061 4.38784 12.0329L4.58169 12.7445L4.4108 12.9205L4.27433 12.0609C4.24372 12.0686 4.21184 12.0737 4.17741 12.0775L4.28581 13.057L4.02947 13.307L3.76802 13.057L3.87005 12.0775C3.83944 12.0737 3.81138 12.0686 3.7846 12.0609L3.64814 12.9205L3.4951 12.779L3.68895 12.0444C3.58309 12.0138 3.47979 11.9717 3.38159 11.9194L2.98368 12.5622H2.76687L3.26171 11.8454C3.23875 11.8301 3.21834 11.8135 3.19921 11.7944L2.59087 12.5622H2.21465V12.2038L2.98241 11.5891C2.9671 11.5699 2.95435 11.5508 2.94287 11.5317L2.21465 12.0214V11.7931L2.8689 11.4169C2.80768 11.3149 2.76432 11.2077 2.73754 11.0981L2.02589 11.3034L1.855 11.1274L2.7031 10.968C2.69928 10.9412 2.69545 10.9131 2.69163 10.8825L1.72364 11.0024L1.44434 10.7524L1.70578 10.491L2.69035 10.593C2.69418 10.5624 2.698 10.5344 2.70183 10.5076L1.81929 10.3647L1.99529 10.2002L2.73499 10.3877C2.76177 10.2818 2.80131 10.1785 2.85487 10.0803L2.2121 9.70411V9.4873L2.92374 9.97703C2.93904 9.95407 2.95435 9.93112 2.96965 9.90816L2.2121 9.30492V8.9287H2.58195L3.18519 9.69135C3.20432 9.67222 3.22727 9.65564 3.25405 9.64034L2.74774 8.9287H2.97475L3.35608 9.57147C3.45428 9.51791 3.55886 9.47454 3.66982 9.44011L3.46449 8.72336L3.64686 8.57032L3.7948 9.41205C3.82158 9.41205 3.84837 9.41078 3.87387 9.40695L3.76547 8.42238L4.02692 8.18262L4.28326 8.43896L4.16975 9.40695C4.20036 9.40695 4.22842 9.4095 4.2552 9.41205L4.40314 8.57032L4.57404 8.71826L4.38019 9.44139C4.48604 9.47199 4.58934 9.51536 4.68755 9.57275L5.06377 8.92997H5.29078L4.80105 9.64162C4.82401 9.65692 4.84696 9.6735 4.86992 9.69263L5.47316 8.92997H5.83153V9.3062L5.07398 9.90306C5.09693 9.92219 5.11351 9.94515 5.12499 9.97193L5.83026 9.48857V9.69901L5.19258 10.0752C5.24997 10.1773 5.29334 10.2844 5.32394 10.3941L6.02921 10.2002L6.20521 10.3647L5.352 10.5127C5.35965 10.5433 5.36348 10.5701 5.36348 10.5917L6.33657 10.4897L6.59291 10.7397L6.34805 10.996L5.36348 10.8825L5.36858 10.8864Z" fill="#F7E634"/>
<path d="M8.10409 11.1312L7.64752 11.2855L7.92554 10.8902L7.63477 10.4999L8.10027 10.6453L8.37829 10.2499L8.38722 10.7346L8.8489 10.8787L8.38722 11.0343L8.39487 11.5215L8.10409 11.1312Z" fill="#F7E634"/>
<path d="M2.89001 16.2058L2.49975 16.489L2.64897 16.0298L2.25488 15.7429H2.74207L2.89001 15.2838L3.04177 15.7429H3.5264L3.13232 16.0298L3.28409 16.4928L2.89001 16.2058Z" fill="#F0BD00"/>
<path d="M2.89001 4.94577L3.28026 4.66136L3.13232 5.12176L3.5264 5.40872H3.03922L2.89001 5.86784L2.73824 5.40872H2.25488L2.64897 5.12176L2.49592 4.65881L2.89001 4.94577Z" fill="#F7E634"/>
<circle cx="10" cy="10.7499" r="9.625" stroke="#E4E4E4" stroke-width="0.75"/>
</g>
<defs>
<clipPath id="clip0_20550_107366">
<rect width="20" height="20" fill="white" transform="translate(0 0.75)"/>
</clipPath>
</defs>
</svg>
