<svg width="300" height="300" viewBox="0 0 300 300" fill="none" xmlns="http://www.w3.org/2000/svg">
<g clip-path="url(#clip0_222_1598)">
<path d="M106.667 75H60H50V85V131.667V141.667H60H106.667H116.667V131.667V85V75H106.667ZM106.667 131.667H60V85H106.667V131.667Z" fill="black"/>
<path d="M240 75H193.333H183.333V85V131.667V141.667H193.333H240H250V131.667V85V75H240ZM240 131.667H193.333V85H240V131.667Z" fill="black"/>
<path d="M106.667 208.333H60H50V218.333V264.999V274.999H60H106.667H116.667V264.999V218.333V208.333H106.667ZM106.667 264.999H60V218.333H106.667V264.999Z" fill="black"/>
<path d="M154.762 75H164.286V84.5238H154.762V75ZM135.714 94.0476H145.238V103.571H135.714V94.0476ZM145.238 94.0476H154.762V103.571H145.238V94.0476ZM145.238 103.571H154.762V113.095H145.238V103.571ZM164.286 103.571H173.81V113.095H164.286V103.571ZM145.238 113.095H154.762V122.619H145.238V113.095ZM154.762 113.095H164.286V122.619H154.762V113.095ZM164.286 113.095H173.81V122.619H164.286V113.095ZM126.19 122.619H135.714V132.143H126.19V122.619ZM135.714 122.619H145.238V132.143H135.714V122.619ZM126.19 132.143H135.714V141.667H126.19V132.143ZM145.238 132.143H154.762V141.667H145.238V132.143ZM164.286 132.143H173.81V141.667H164.286V132.143ZM50 151.19H59.5238V160.714H50V151.19ZM78.5714 151.19H88.0952V160.714H78.5714V151.19ZM97.619 151.19H107.143V160.714H97.619V151.19ZM107.143 151.19H116.667V160.714H107.143V151.19ZM126.19 151.19H135.714V160.714H126.19V151.19ZM135.714 151.19H145.238V160.714H135.714V151.19ZM154.762 151.19H164.286V160.714H154.762V151.19ZM164.286 151.19H173.81V160.714H164.286V151.19ZM173.81 151.19H183.333V160.714H173.81V151.19ZM192.857 151.19H202.381V160.714H192.857V151.19ZM50 160.714H59.5238V170.238H50V160.714ZM69.0476 160.714H78.5714V170.238H69.0476V160.714ZM116.667 160.714H126.19V170.238H116.667V160.714ZM126.19 160.714H135.714V170.238H126.19V160.714ZM135.714 160.714H145.238V170.238H135.714V160.714ZM154.762 160.714H164.286V170.238H154.762V160.714ZM173.81 160.714H183.333V170.238H173.81V160.714ZM183.333 160.714H192.857V170.238H183.333V160.714ZM192.857 160.714H202.381V170.238H192.857V160.714ZM211.905 160.714H221.429V170.238H211.905V160.714ZM221.429 160.714H230.952V170.238H221.429V160.714ZM230.952 160.714H240.476V170.238H230.952V160.714ZM240.476 160.714H250V170.238H240.476V160.714ZM59.5238 170.238H69.0476V179.762H59.5238V170.238ZM69.0476 170.238H78.5714V179.762H69.0476V170.238ZM78.5714 170.238H88.0952V179.762H78.5714V170.238ZM107.143 170.238H116.667V179.762H107.143V170.238ZM126.19 170.238H135.714V179.762H126.19V170.238ZM154.762 170.238H164.286V179.762H154.762V170.238ZM173.81 170.238H183.333V179.762H173.81V170.238ZM202.381 170.238H211.905V179.762H202.381V170.238ZM211.905 170.238H221.429V179.762H211.905V170.238ZM221.429 170.238H230.952V179.762H221.429V170.238ZM240.476 170.238H250V179.762H240.476V170.238ZM50 179.762H59.5238V189.286H50V179.762ZM69.0476 179.762H78.5714V189.286H69.0476V179.762ZM88.0952 179.762H97.619V189.286H88.0952V179.762ZM116.667 179.762H126.19V189.286H116.667V179.762ZM126.19 179.762H135.714V189.286H126.19V179.762ZM135.714 179.762H145.238V189.286H135.714V179.762ZM164.286 179.762H173.81V189.286H164.286V179.762ZM173.81 179.762H183.333V189.286H173.81V179.762ZM183.333 179.762H192.857V189.286H183.333V179.762ZM192.857 179.762H202.381V189.286H192.857V179.762ZM230.952 179.762H240.476V189.286H230.952V179.762ZM240.476 179.762H250V189.286H240.476V179.762ZM50 189.286H59.5238V198.81H50V189.286ZM59.5238 189.286H69.0476V198.81H59.5238V189.286ZM69.0476 189.286H78.5714V198.81H69.0476V189.286ZM107.143 189.286H116.667V198.81H107.143V189.286ZM116.667 189.286H126.19V198.81H116.667V189.286ZM145.238 189.286H154.762V198.81H145.238V189.286ZM154.762 189.286H164.286V198.81H154.762V189.286ZM183.333 189.286H192.857V198.81H183.333V189.286ZM126.19 198.81H135.714V208.333H126.19V198.81ZM135.714 198.81H145.238V208.333H135.714V198.81ZM173.81 198.81H183.333V208.333H173.81V198.81ZM183.333 198.81H192.857V208.333H183.333V198.81ZM202.381 198.81H211.905V208.333H202.381V198.81ZM211.905 198.81H221.429V208.333H211.905V198.81ZM154.762 208.333H164.286V217.857H154.762V208.333ZM164.286 208.333H173.81V217.857H164.286V208.333ZM183.333 208.333H192.857V217.857H183.333V208.333ZM221.429 208.333H230.952V217.857H221.429V208.333ZM230.952 208.333H240.476V217.857H230.952V208.333ZM126.19 217.857H135.714V227.381H126.19V217.857ZM135.714 217.857H145.238V227.381H135.714V217.857ZM145.238 217.857H154.762V227.381H145.238V217.857ZM183.333 217.857H192.857V227.381H183.333V217.857ZM202.381 217.857H211.905V227.381H202.381V217.857ZM211.905 217.857H221.429V227.381H211.905V217.857ZM230.952 217.857H240.476V227.381H230.952V217.857ZM135.714 227.381H145.238V236.905H135.714V227.381ZM164.286 227.381H173.81V236.905H164.286V227.381ZM173.81 227.381H183.333V236.905H173.81V227.381ZM183.333 227.381H192.857V236.905H183.333V227.381ZM192.857 227.381H202.381V236.905H192.857V227.381ZM202.381 227.381H211.905V236.905H202.381V227.381ZM230.952 227.381H240.476V236.905H230.952V227.381ZM126.19 236.905H135.714V246.429H126.19V236.905ZM135.714 236.905H145.238V246.429H135.714V236.905ZM173.81 236.905H183.333V246.429H173.81V236.905ZM183.333 236.905H192.857V246.429H183.333V236.905ZM230.952 236.905H240.476V246.429H230.952V236.905ZM240.476 236.905H250V246.429H240.476V236.905ZM135.714 246.429H145.238V255.952H135.714V246.429ZM154.762 246.429H164.286V255.952H154.762V246.429ZM173.81 246.429H183.333V255.952H173.81V246.429ZM183.333 246.429H192.857V255.952H183.333V246.429ZM221.429 246.429H230.952V255.952H221.429V246.429ZM240.476 246.429H250V255.952H240.476V246.429ZM135.714 255.952H145.238V265.476H135.714V255.952ZM154.762 255.952H164.286V265.476H154.762V255.952ZM164.286 255.952H173.81V265.476H164.286V255.952ZM192.857 255.952H202.381V265.476H192.857V255.952ZM202.381 255.952H211.905V265.476H202.381V255.952ZM221.429 255.952H230.952V265.476H221.429V255.952ZM126.19 265.476H135.714V275H126.19V265.476ZM145.238 265.476H154.762V275H145.238V265.476ZM173.81 265.476H183.333V275H173.81V265.476ZM202.381 265.476H211.905V275H202.381V265.476ZM230.952 265.476H240.476V275H230.952V265.476ZM69.0476 94.0476H97.619V122.619H69.0476V94.0476ZM202.381 94.0476H230.952V122.619H202.381V94.0476ZM69.0476 227.381H97.619V255.952H69.0476V227.381Z" fill="black"/>
<path d="M108.681 50.7625H109.319L108.726 53.2375C108.636 53.5975 108.659 53.8825 108.779 54.0625C108.899 54.2425 109.124 54.3325 109.454 54.3325C109.776 54.3325 110.046 54.2425 110.264 54.0625C110.474 53.8825 110.616 53.5975 110.706 53.2375L111.299 50.7625H111.944L111.336 53.2975C111.201 53.8375 110.969 54.25 110.624 54.5275C110.294 54.7975 109.844 54.94 109.304 54.94C108.764 54.94 108.389 54.8125 108.186 54.535C107.984 54.265 107.946 53.8525 108.074 53.305L108.681 50.7625Z" fill="#3D3D3C"/>
<path d="M111.846 54.8275L112.851 50.5975L114.771 53.08C114.824 53.1475 114.869 53.2225 114.921 53.305C114.974 53.3875 115.019 53.4775 115.086 53.575L115.761 50.7625H116.354L115.349 54.9775L113.391 52.45C113.339 52.3825 113.294 52.3075 113.241 52.24C113.189 52.1575 113.151 52.09 113.121 52L112.446 54.8275H111.846Z" fill="#3D3D3C"/>
<path d="M116.309 54.8275L117.276 50.7625H117.921L116.954 54.8275H116.309Z" fill="#3D3D3C"/>
<path d="M117.869 54.8275L118.836 50.7625H121.049L120.921 51.325H119.361L119.121 52.33H120.681L120.539 52.9075H118.979L118.521 54.8125H117.876V54.8275H117.869Z" fill="#3D3D3C"/>
<path d="M120.794 54.8275L121.761 50.7625H122.406L121.439 54.8275H120.794Z" fill="#3D3D3C"/>
<path d="M122.361 54.8275L123.329 50.7625H125.541L125.414 51.325H123.854L123.614 52.345H125.174L125.031 52.9225H123.471L123.156 54.235H124.716L124.574 54.8275H122.361Z" fill="#3D3D3C"/>
<path d="M125.316 54.8275L126.284 50.7625H127.154C127.716 50.7625 128.114 50.7925 128.324 50.8525C128.534 50.9125 128.714 51.0025 128.856 51.145C129.036 51.325 129.156 51.5575 129.209 51.8275C129.261 52.1125 129.239 52.435 129.156 52.7875C129.066 53.1475 128.931 53.4625 128.751 53.7475C128.571 54.0325 128.339 54.25 128.069 54.43C127.866 54.5725 127.649 54.6625 127.401 54.7225C127.169 54.7825 126.816 54.8125 126.351 54.8125H126.179H125.309V54.8275H125.316ZM126.104 54.22H126.651C126.944 54.22 127.176 54.1975 127.334 54.16C127.499 54.1225 127.634 54.0475 127.769 53.9575C127.949 53.83 128.099 53.665 128.226 53.4625C128.346 53.2675 128.436 53.0425 128.496 52.78C128.556 52.5175 128.579 52.2925 128.549 52.105C128.519 51.91 128.451 51.745 128.324 51.61C128.234 51.5125 128.121 51.445 127.971 51.4075C127.821 51.37 127.589 51.3475 127.259 51.3475H127.026H126.794L126.104 54.22Z" fill="#3D3D3C"/>
<path d="M132.126 53.005L131.691 54.8275H131.084L132.051 50.7625H133.026C133.319 50.7625 133.521 50.785 133.649 50.815C133.776 50.845 133.881 50.8975 133.964 50.98C134.061 51.07 134.136 51.205 134.166 51.3625C134.196 51.5275 134.189 51.6925 134.144 51.8875C134.091 52.0825 134.024 52.2625 133.911 52.42C133.799 52.585 133.671 52.7125 133.529 52.8025C133.409 52.87 133.274 52.93 133.139 52.9675C132.996 52.9975 132.779 53.02 132.494 53.02H132.366H132.126V53.005ZM132.291 52.4575H132.456C132.809 52.4575 133.064 52.42 133.206 52.3375C133.349 52.255 133.439 52.1125 133.491 51.9175C133.544 51.7075 133.514 51.5425 133.409 51.46C133.296 51.37 133.079 51.3325 132.741 51.3325H132.576L132.291 52.4575Z" fill="#3D3D3C"/>
<path d="M136.341 54.8275L136.139 53.7775H134.564L133.859 54.8275H133.184L136.109 50.5975L137.016 54.8275H136.341ZM134.946 53.2225H136.049L135.869 52.2925C135.861 52.2325 135.846 52.165 135.846 52.09C135.839 52.0075 135.839 51.925 135.839 51.835C135.801 51.925 135.756 52.0075 135.711 52.09C135.674 52.1725 135.629 52.24 135.591 52.3L134.946 53.2225Z" fill="#3D3D3C"/>
<path d="M137.946 54.8275L138.389 52.975L137.579 50.7775H138.254L138.756 52.1575C138.764 52.195 138.779 52.24 138.794 52.3C138.816 52.36 138.824 52.42 138.846 52.48C138.884 52.42 138.929 52.36 138.966 52.3C139.004 52.24 139.049 52.1875 139.086 52.135L140.264 50.77H140.909L139.019 52.96L138.576 54.8125H137.931V54.8275H137.946Z" fill="#3D3D3C"/>
<path d="M144.089 52.8175C144.089 52.7875 144.096 52.6975 144.119 52.555C144.126 52.435 144.141 52.345 144.149 52.2625C144.111 52.3525 144.066 52.4425 144.021 52.5475C143.969 52.6375 143.909 52.7425 143.841 52.8325L142.281 55L141.779 52.7875C141.756 52.6975 141.741 52.6075 141.726 52.525C141.719 52.4425 141.704 52.3525 141.704 52.27C141.681 52.3525 141.651 52.4425 141.621 52.54C141.591 52.63 141.554 52.735 141.501 52.8325L140.594 54.8275H140.001L141.951 50.59L142.506 53.155C142.514 53.1925 142.529 53.2675 142.536 53.3575C142.544 53.4475 142.566 53.5675 142.589 53.71C142.656 53.59 142.754 53.4475 142.874 53.2675C142.904 53.215 142.934 53.185 142.941 53.155L144.696 50.59L144.636 54.8275H144.044L144.089 52.8175Z" fill="#3D3D3C"/>
<path d="M145.154 54.8275L146.121 50.7625H148.334L148.199 51.325H146.639L146.399 52.345H147.959L147.816 52.9225H146.256L145.941 54.235H147.501L147.359 54.8275H145.154Z" fill="#3D3D3C"/>
<path d="M148.101 54.8275L149.106 50.5975L151.026 53.08C151.079 53.1475 151.124 53.2225 151.176 53.305C151.229 53.3875 151.274 53.4775 151.341 53.575L152.016 50.7625H152.609L151.604 54.9775L149.646 52.4425C149.594 52.375 149.549 52.3 149.496 52.2325C149.444 52.15 149.406 52.0825 149.376 51.9925L148.701 54.82H148.109V54.8275H148.101Z" fill="#3D3D3C"/>
<path d="M154.671 51.3175L153.831 54.82H153.186L154.026 51.3175H152.976L153.104 50.755H155.849L155.721 51.3175H154.671Z" fill="#3D3D3C"/>
<path d="M155.346 54.01L155.924 53.77C155.931 53.95 155.984 54.0925 156.096 54.1825C156.209 54.2725 156.359 54.325 156.561 54.325C156.756 54.325 156.914 54.2725 157.056 54.16C157.199 54.0475 157.289 53.905 157.326 53.725C157.386 53.485 157.244 53.2675 156.906 53.0875C156.854 53.0575 156.824 53.035 156.794 53.0275C156.411 52.8025 156.171 52.615 156.066 52.435C155.969 52.255 155.946 52.045 156.006 51.79C156.089 51.46 156.261 51.1975 156.531 50.98C156.801 50.7775 157.109 50.665 157.469 50.665C157.761 50.665 157.994 50.725 158.166 50.8375C158.339 50.95 158.429 51.1225 158.459 51.3325L157.896 51.595C157.844 51.4675 157.784 51.37 157.701 51.31C157.619 51.25 157.521 51.22 157.401 51.22C157.229 51.22 157.079 51.2725 156.959 51.3625C156.839 51.4525 156.756 51.5725 156.719 51.7375C156.659 51.9775 156.831 52.21 157.221 52.42C157.251 52.4425 157.274 52.45 157.289 52.4575C157.634 52.6375 157.866 52.8175 157.964 53.005C158.061 53.1925 158.084 53.395 158.024 53.6725C157.934 54.055 157.739 54.355 157.446 54.5875C157.154 54.8125 156.809 54.9325 156.404 54.9325C156.074 54.9325 155.811 54.85 155.624 54.6925C155.421 54.535 155.331 54.3025 155.346 54.01Z" fill="#3D3D3C"/>
<path d="M160.094 54.8275L161.061 50.7625H161.706L160.739 54.8275H160.094Z" fill="#3D3D3C"/>
<path d="M161.669 54.8275L162.674 50.5975L164.594 53.08C164.646 53.1475 164.691 53.2225 164.744 53.305C164.796 53.3875 164.841 53.4775 164.909 53.575L165.584 50.7625H166.176L165.171 54.9775L163.214 52.4425C163.161 52.375 163.116 52.3 163.064 52.2325C163.011 52.15 162.974 52.0825 162.944 51.9925L162.269 54.82H161.676V54.8275H161.669Z" fill="#3D3D3C"/>
<path d="M168.239 51.3175L167.399 54.82H166.754L167.594 51.3175H166.544L166.671 50.755H169.416L169.289 51.3175H168.239Z" fill="#3D3D3C"/>
<path d="M168.929 54.8275L169.896 50.7625H172.116L171.989 51.325H170.429L170.189 52.345H171.749L171.606 52.9225H170.046L169.731 54.235H171.291L171.149 54.8275H168.929Z" fill="#3D3D3C"/>
<path d="M172.919 53.005L172.484 54.82H171.876L172.844 50.755H173.744C174.006 50.755 174.209 50.7775 174.336 50.8075C174.479 50.8375 174.591 50.8975 174.666 50.98C174.764 51.0775 174.831 51.205 174.861 51.3625C174.891 51.5125 174.884 51.685 174.839 51.88C174.756 52.2025 174.629 52.465 174.426 52.645C174.224 52.825 173.969 52.9375 173.669 52.975L174.584 54.82H173.856L172.979 53.005H172.919V53.005ZM173.076 52.4875H173.196C173.541 52.4875 173.774 52.45 173.901 52.3675C174.029 52.285 174.126 52.1425 174.171 51.9325C174.224 51.7075 174.201 51.55 174.104 51.46C174.006 51.37 173.789 51.3175 173.466 51.3175H173.346L173.076 52.4875Z" fill="#3D3D3C"/>
<path d="M174.981 54.8275L175.949 50.7625H178.161L178.034 51.325H176.474L176.234 52.33H177.794L177.651 52.9075H176.091L175.634 54.8125H174.989V54.8275H174.981Z" fill="#3D3D3C"/>
<path d="M180.314 54.8275L180.111 53.7775H178.536L177.831 54.8275H177.156L180.081 50.5975L180.989 54.8275H180.314ZM178.911 53.2225H180.014L179.834 52.2925C179.826 52.2325 179.811 52.165 179.811 52.09C179.804 52.0075 179.804 51.925 179.804 51.835C179.766 51.925 179.721 52.0075 179.676 52.09C179.639 52.1725 179.594 52.24 179.556 52.3L178.911 53.2225Z" fill="#3D3D3C"/>
<path d="M185.181 51.7525C185.039 51.5875 184.866 51.4675 184.686 51.4C184.506 51.3175 184.304 51.28 184.071 51.28C183.636 51.28 183.254 51.4225 182.909 51.7C182.564 51.985 182.346 52.3525 182.234 52.81C182.136 53.245 182.174 53.605 182.376 53.8975C182.571 54.1825 182.871 54.3175 183.276 54.3175C183.509 54.3175 183.741 54.28 183.974 54.19C184.206 54.1075 184.439 53.98 184.679 53.8075L184.499 54.5575C184.296 54.685 184.086 54.7825 183.861 54.8425C183.636 54.9025 183.419 54.9325 183.179 54.9325C182.879 54.9325 182.601 54.88 182.369 54.7825C182.136 54.685 181.949 54.5275 181.791 54.325C181.641 54.13 181.551 53.905 181.506 53.6425C181.469 53.38 181.476 53.095 181.559 52.795C181.626 52.495 181.754 52.2175 181.911 51.955C182.076 51.6925 182.286 51.46 182.526 51.2725C182.766 51.07 183.029 50.92 183.314 50.815C183.599 50.71 183.876 50.665 184.169 50.665C184.401 50.665 184.611 50.695 184.814 50.7625C185.009 50.83 185.189 50.935 185.346 51.0775L185.181 51.7525Z" fill="#3D3D3C"/>
<path d="M185.241 54.8275L186.209 50.7625H188.421L188.294 51.325H186.734L186.494 52.345H188.054L187.911 52.9225H186.351L186.036 54.235H187.596L187.454 54.8275H185.241Z" fill="#3D3D3C"/>
<path d="M173.504 47.2225H169.079L175.229 25H179.654L173.504 47.2225Z" fill="#70706E"/>
<path d="M171.201 25.6975C170.901 25.2775 170.421 25.06 169.776 25.06H145.446L144.246 29.4175H148.671H166.371L165.081 34.0675H147.381V34.06H142.956L139.281 47.3275H143.706L146.174 38.425H166.079C166.701 38.425 167.286 38.215 167.834 37.7875C168.381 37.36 168.741 36.8425 168.914 36.2125L171.374 27.3175C171.561 26.6575 171.501 26.1175 171.201 25.6975Z" fill="#70706E"/>
<path d="M136.701 45.8275C136.461 46.705 135.651 47.32 134.744 47.32H111.921C111.299 47.32 110.834 47.11 110.526 46.6825C110.226 46.2625 110.151 45.7375 110.331 45.1075L115.896 25.0525H120.321L115.356 42.9775H133.071L138.044 25.06H142.469L136.701 45.8275Z" fill="#70706E"/>
<path d="M187.304 25.0375L192.899 36.175L181.131 47.3125L187.304 25.0375Z" fill="#098041"/>
<path d="M183.366 25.0375L188.969 36.175L177.186 47.3125L183.366 25.0375Z" fill="#E97626"/>
</g>
<defs>
<clipPath id="clip0_222_1598">
<rect width="300" height="300" rx="8" fill="white"/>
</clipPath>
</defs>
</svg>
